<?xml version="1.0" encoding="UTF-8"?>
<svg version="1.1" xmlns="http://www.w3.org/2000/svg" width="567" height="440">
<path d="M0 0 C5.02271966 2.52908708 9.47065198 5.68578218 14 9 C15.11065241 9.7909289 16.22260804 10.58003135 17.3359375 11.3671875 C19.61648557 12.98470403 21.88639804 14.61601305 24.15234375 16.25390625 C29.39458491 20.02137652 34.73967433 23.63955627 40.0769043 27.27050781 C44.03551333 29.96519044 47.97895387 32.67832584 51.8984375 35.4296875 C57.19296407 39.144776 62.5288195 42.79725798 67.875 46.4375 C69.32724976 47.42689575 69.32724976 47.42689575 70.80883789 48.4362793 C77.51251613 52.99870032 84.23878831 57.52323041 91 62 C93.60545041 63.72723993 96.20922796 65.45697913 98.8125 67.1875 C99.42343506 67.59202393 100.03437012 67.99654785 100.66381836 68.41333008 C104.29016619 70.82414784 107.84936063 73.30513652 111.36132812 75.88012695 C113.08199284 77.05603414 114.84748186 78.02328138 116.6875 79 C121.27518256 81.76992154 123.8875994 85.12799522 126 90 C126.71575914 94.5775294 126.45507127 98.08985746 124.375 102.25 C117.95534053 109.68328991 117.95534053 109.68328991 113.2265625 110.44921875 C108.08491562 110.6370119 104.39235659 110.33851301 99.80029297 107.96459961 C99.08662567 107.59846054 98.37295837 107.23232147 97.63766479 106.85508728 C96.82702072 106.43181908 96.82702072 106.43181908 96 106 C96.00222061 106.76199203 96.00444122 107.52398407 96.00672913 108.30906677 C96.02673157 115.47551712 96.04197388 122.64195401 96.05181217 129.80842495 C96.05704008 133.49314498 96.06413605 137.17784203 96.07543945 140.86254883 C96.08627162 144.41570831 96.09227753 147.96884563 96.09487724 151.52202034 C96.0967309 152.88045666 96.10035038 154.23889171 96.10573006 155.59731865 C96.11294475 157.49382223 96.11340809 159.39034793 96.11352539 161.28686523 C96.115746 162.36830307 96.11796661 163.44974091 96.12025452 164.56394958 C96 167 96 167 95 168 C87.8889942 168.23314773 87.8889942 168.23314773 85.16796875 167.51953125 C81.03893659 166.53005147 76.73643604 166.59353401 72.5078125 166.37890625 C69.07214538 166.00779299 66.22277134 165.21716288 63 164 C62.13583002 158.07796903 61.87817417 152.37352793 61.9375 146.39453125 C61.9480213 144.51831247 61.95817976 142.64209163 61.96801758 140.76586914 C61.97443268 139.79328156 61.98084778 138.82069397 61.98745728 137.81863403 C62.00012295 134.78303279 61.99117876 131.74822515 61.9753418 128.71264648 C61.93468236 119.8092952 61.93738722 110.96446599 62.51953125 102.078125 C63.50319181 90.22064265 63.50319181 90.22064265 59.14941406 79.62744141 C54.24603846 75.18973229 48.66742633 72.25011516 42.74560547 69.38818359 C38.72332792 67.35451205 35.14905614 64.81672665 31.5 62.1875 C30.21134509 61.29440305 28.92102218 60.40370724 27.62890625 59.515625 C25.30150727 57.90373356 22.97633052 56.2886812 20.65234375 54.671875 C18.00772869 52.83381933 15.35997791 51.00059094 12.70654297 49.17529297 C11.49058334 48.33786383 10.27623648 47.49809089 9.06298828 46.65673828 C7.04772318 45.26259991 5.0247902 43.88025794 3 42.5 C2.37665771 42.0661499 1.75331543 41.6322998 1.11108398 41.18530273 C-2.22597704 38.92813223 -4.96425597 37.42803346 -9 37 C-9 37.66 -9 38.32 -9 39 C-11.20532227 40.66845703 -11.20532227 40.66845703 -14.25390625 42.6328125 C-15.35234863 43.34727539 -16.45079102 44.06173828 -17.58251953 44.79785156 C-18.152547 45.16479126 -18.72257446 45.53173096 -19.30987549 45.90979004 C-21.8742077 47.56390517 -24.41881041 49.24758526 -26.96484375 50.9296875 C-27.94300049 51.57494385 -28.92115723 52.2202002 -29.92895508 52.88500977 C-38.6014159 58.62137495 -47.0867703 64.42517328 -55.23828125 70.87890625 C-61.10623564 75.38569442 -67.10065583 79.31373288 -74 82 C-73.99777939 83.02508163 -73.99555878 84.05016327 -73.99327087 85.10630798 C-73.97303959 94.7450696 -73.95802793 104.38382694 -73.94818783 114.02260494 C-73.94295897 118.97853922 -73.93586126 123.93445642 -73.92456055 128.89038086 C-73.91373178 133.66898836 -73.90772319 138.44757938 -73.90512276 143.2261982 C-73.90326849 145.05353619 -73.89964784 146.88087324 -73.89426994 148.70820427 C-73.88705964 151.25853329 -73.88600905 153.80879337 -73.88647461 156.35913086 C-73.88287933 157.12229614 -73.87928406 157.88546143 -73.87557983 158.67175293 C-73.88594784 163.88594784 -73.88594784 163.88594784 -75 165 C-76.61005376 165.21584801 -78.22831436 165.37117728 -79.84765625 165.5 C-80.84603516 165.5825 -81.84441406 165.665 -82.87304688 165.75 C-83.92556641 165.8325 -84.97808594 165.915 -86.0625 166 C-92.73120461 166.53651426 -99.36844923 167.10836292 -106 168 C-107.51203901 163.93300819 -108.26002622 160.5114019 -108.31884766 156.17822266 C-108.33871735 155.05751373 -108.35858704 153.93680481 -108.37905884 152.78213501 C-108.39061005 151.58817108 -108.40216125 150.39420715 -108.4140625 149.1640625 C-108.43342865 147.92957367 -108.4527948 146.69508484 -108.4727478 145.42318726 C-108.53240097 141.49052788 -108.57887263 137.557839 -108.625 133.625 C-108.66212543 130.95439547 -108.70224525 128.28384636 -108.7421875 125.61328125 C-108.83809096 119.07562886 -108.92318029 112.53790298 -109 106 C-110.10013428 106.64904297 -111.20026855 107.29808594 -112.33374023 107.96679688 C-116.90638766 110.66450816 -120.78761854 110.84431964 -126 110 C-130.85940247 107.6602877 -133.55829963 104.79296738 -136 100 C-137.20060541 95.49361807 -137.22038502 91.91302366 -136.125 87.375 C-131.11674324 79.42070985 -121.74754008 74.72495615 -114.00390625 69.640625 C-111.26521954 67.84224544 -108.5464485 66.01818197 -105.83984375 64.171875 C-105.16518066 63.71401611 -104.49051758 63.25615723 -103.79541016 62.78442383 C-102.5018065 61.9057226 -101.21097085 61.02292841 -99.92333984 60.13549805 C-97.02181342 58.17499646 -94.5130175 56.49687841 -91 56 C-91 55.34 -91 54.68 -91 54 C-89.32617188 52.66235352 -89.32617188 52.66235352 -86.96875 51.12890625 C-85.669375 50.27498291 -85.669375 50.27498291 -84.34375 49.40380859 C-83.4053125 48.79617676 -82.466875 48.18854492 -81.5 47.5625 C-79.57232144 46.29647877 -77.64524445 45.02954112 -75.71875 43.76171875 C-74.27242187 42.81304932 -74.27242187 42.81304932 -72.796875 41.84521484 C-68.83485852 39.23130767 -64.91119231 36.56417819 -61 33.875 C-60.36126953 33.43873291 -59.72253906 33.00246582 -59.06445312 32.55297852 C-56.36065284 30.6928425 -53.76679127 28.80455518 -51.25 26.6953125 C-49 25 -49 25 -46 25 C-46 24.34 -46 23.68 -46 23 C-44.34285844 21.76169642 -42.61971839 20.61151772 -40.875 19.5 C-36.70622624 16.79792586 -32.62053689 14.04158775 -28.60522461 11.11669922 C-9.97628872 -2.43576919 -9.97628872 -2.43576919 0 0 Z " fill="#F28C2B" transform="translate(280,70)"/>
<path d="M0 0 C4.33087606 3.73785153 5.46162359 7.86856865 5.87109375 13.35546875 C5.89363545 17.72104541 5.31478554 21.1000864 2.2578125 24.35546875 C-3.66252084 29.54809445 -7.50462383 29.96214542 -15.40625 29.9140625 C-19.78816566 29.57273433 -23.0837438 28.36302428 -27.11328125 26.71484375 C-48.61715105 18.91304963 -72.79888777 21.21067096 -93.421875 30.2578125 C-96.91627791 32.03033571 -100.10402614 34.09779961 -103.27734375 36.390625 C-105.1171875 37.625 -105.1171875 37.625 -108.1171875 38.625 C-108.1171875 39.285 -108.1171875 39.945 -108.1171875 40.625 C-111.57872596 43.625 -111.57872596 43.625 -114.1171875 43.625 C-114.35824219 44.15867187 -114.59929687 44.69234375 -114.84765625 45.2421875 C-116.46319985 48.27443857 -118.42802319 50.95776239 -120.4296875 53.75 C-131.13640663 69.08065679 -135.4497041 84.59731747 -136.3972168 103.16259766 C-136.81837056 110.63138949 -137.65301052 117.47632941 -142.3671875 123.5 C-146.89940251 127.00216615 -150.83993288 128.95905894 -156.6171875 128.625 C-162.34457091 127.72582035 -166.13359314 125.00716706 -169.7890625 120.6171875 C-171.78625671 116.11762642 -171.56175065 111.86902083 -171.4921875 107 C-171.48203613 105.97817627 -171.47188477 104.95635254 -171.46142578 103.90356445 C-170.81659489 71.73949939 -159.11972936 43.99780692 -137.1171875 20.625 C-136.51648438 19.94824219 -135.91578125 19.27148438 -135.296875 18.57421875 C-103.99634446 -15.23306423 -39.44894008 -24.19168451 0 0 Z " fill="#2F9A4B" transform="translate(399.1171875,253.375)"/>
<path d="M0 0 C0.66 0.33 1.32 0.66 2 1 C2 1.66 2 2.32 2 3 C2.721875 3.23976562 3.44375 3.47953125 4.1875 3.7265625 C7.40508721 5.18341449 9.43203525 6.95950816 12 9.375 C14.40497535 11.62214884 16.74511022 13.80799421 19.375 15.7890625 C26.14827414 21.49393328 31.34117055 28.88702433 36.625 35.9375 C37.58792969 37.20110352 37.58792969 37.20110352 38.5703125 38.49023438 C42.54467616 43.77988437 45.95910595 49.12683452 49 55 C49.34224609 55.64735107 49.68449219 56.29470215 50.03710938 56.96166992 C72.64092861 100.10174998 79.29938264 149.7772581 64.70019531 196.83300781 C61.31876429 207.29799449 57.29820689 217.33995835 52 227 C51.64953613 227.64050293 51.29907227 228.28100586 50.93798828 228.94091797 C40.62358651 247.60819403 26.98138138 265.84026022 10 279 C9.34 279 8.68 279 8 279 C8 279.66 8 280.32 8 281 C6.66162109 282.20166016 6.66162109 282.20166016 4.7734375 283.5390625 C3.72953857 284.2810791 3.72953857 284.2810791 2.66455078 285.03808594 C1.90899902 285.56176758 1.15344727 286.08544922 0.375 286.625 C-0.3895752 287.15899414 -1.15415039 287.69298828 -1.94189453 288.24316406 C-20.44045729 301 -20.44045729 301 -26 301 C-26 301.66 -26 302.32 -26 303 C-32.19136047 306.26745942 -38.45017717 308.77520127 -45.0625 311.0625 C-46.07820068 311.41393066 -47.09390137 311.76536133 -48.14038086 312.12744141 C-56.04127466 314.79804252 -63.74559794 316.73304527 -72 318 C-73.53914063 318.28617187 -73.53914063 318.28617187 -75.109375 318.578125 C-96.81985961 322.2847931 -124.12495875 323.95552753 -145 316 C-146.30734372 315.7052809 -147.61996773 315.43268494 -148.9375 315.1875 C-173.7944839 309.79833878 -196.55689709 296.69829288 -216.4128418 281.20166016 C-217.89947864 280.07610616 -219.44850821 279.03432786 -221 278 C-221 277.34 -221 276.68 -221 276 C-221.53496094 275.78859375 -222.06992188 275.5771875 -222.62109375 275.359375 C-248.56966158 260.53162195 -266.24827391 222.31163708 -274 195 C-286.33509652 148.02803817 -282.82998623 97.2552554 -258.64697266 54.61425781 C-252.34213246 43.88598107 -245.31712101 34.23386438 -237 25 C-235.85392478 23.62520161 -234.70806114 22.25022678 -233.5625 20.875 C-204.8190212 -11.53785907 -161.54479876 -31.28102158 -118.58203125 -33.875 C-76.16843718 -35.3550818 -34.09830959 -26.73536223 0 0 Z M-159 -22 C-159.92200195 -21.66129883 -160.84400391 -21.32259766 -161.79394531 -20.97363281 C-164.86958132 -19.83329536 -167.93624873 -18.67187637 -171 -17.5 C-171.9679248 -17.13245605 -172.93584961 -16.76491211 -173.93310547 -16.38623047 C-179.06569774 -14.37287351 -183.72995732 -12.1623646 -188.32543945 -9.10644531 C-189.89370943 -8.07023019 -191.53980919 -7.15461456 -193.1875 -6.25 C-214.38508141 5.8354989 -233.58431469 23.66009002 -247 44 C-247 44.66 -247 45.32 -247 46 C-247.66 46 -248.32 46 -249 46 C-260.16516397 65.96195982 -269.19618579 85.53844977 -274 108 C-274.16661133 108.76795898 -274.33322266 109.53591797 -274.50488281 110.32714844 C-278.96232788 131.67304996 -277.92972083 153.65728392 -274 175 C-273.83371094 175.91233398 -273.66742188 176.82466797 -273.49609375 177.76464844 C-268.31036703 205.20098406 -256.37007786 229.52859528 -240 252 C-239.44183594 252.80566406 -238.88367188 253.61132812 -238.30859375 254.44140625 C-237.66083984 255.21291016 -237.66083984 255.21291016 -237 256 C-236.34 256 -235.68 256 -235 256 C-234.73123047 256.59329102 -234.46246094 257.18658203 -234.18554688 257.79785156 C-232.99709268 260.00540033 -231.79257611 261.46542882 -230.03125 263.234375 C-229.46019531 263.80800781 -228.88914063 264.38164062 -228.30078125 264.97265625 C-227.70652344 265.55917969 -227.11226562 266.14570313 -226.5 266.75 C-225.90574219 267.35199219 -225.31148437 267.95398438 -224.69921875 268.57421875 C-224.12816406 269.14269531 -223.55710938 269.71117187 -222.96875 270.296875 C-222.18661133 271.07562988 -222.18661133 271.07562988 -221.38867188 271.87011719 C-220.03981731 273.21037547 -220.03981731 273.21037547 -218 273 C-218 273.66 -218 274.32 -218 275 C-216.05624046 276.81628776 -216.05624046 276.81628776 -213.625 278.625 C-212.81289062 279.25664062 -212.00078125 279.88828125 -211.1640625 280.5390625 C-209.15890121 282.18650808 -209.15890121 282.18650808 -207 282 C-207 282.66 -207 283.32 -207 284 C-204.56866946 285.63863397 -202.15228465 287.14921334 -199.625 288.625 C-198.57699219 289.25535156 -198.57699219 289.25535156 -197.5078125 289.8984375 C-193.99543449 292.19195826 -193.99543449 292.19195826 -190 293 C-190 293.66 -190 294.32 -190 295 C-162.91141677 307.81467464 -162.91141677 307.81467464 -134 315 C-132.98542725 315.16701416 -131.97085449 315.33402832 -130.92553711 315.50610352 C-122.19369996 316.87730987 -113.6477132 317.42220282 -104.8125 317.4375 C-103.78775574 317.44009827 -103.78775574 317.44009827 -102.74230957 317.44274902 C-84.19958518 317.42235235 -66.48182822 314.18057568 -49 308 C-47.30810547 307.42185547 -47.30810547 307.42185547 -45.58203125 306.83203125 C-32.28028232 301.93533665 -19.69235681 294.98677911 -8 287 C-7.10023438 286.38640625 -6.20046875 285.7728125 -5.2734375 285.140625 C3.58340671 278.90341077 11.35967069 271.65277284 19 264 C19.5878125 263.45859375 20.175625 262.9171875 20.78125 262.359375 C42.23409034 242.27171541 55.52815774 214.00054018 63 186 C63.31066406 184.86433594 63.62132812 183.72867188 63.94140625 182.55859375 C67.21602357 169.66577678 67.1867924 156.34076084 67.18530273 143.11108398 C67.18750234 140.93518857 67.20579977 138.75979191 67.22460938 136.58398438 C67.34147367 107.73173665 58.86802715 81.95970816 45 57 C44.37689941 55.85011597 44.37689941 55.85011597 43.74121094 54.67700195 C41.18782106 49.9910074 38.49172191 45.51969228 35.375 41.1875 C34.94896484 40.59420898 34.52292969 40.00091797 34.08398438 39.38964844 C29.50947939 33.14714709 24.38150216 27.55706889 19 22 C18.52933105 21.50886719 18.05866211 21.01773438 17.57373047 20.51171875 C13.40105705 16.1376523 13.40105705 16.1376523 9 12 C8.34 12 7.68 12 7 12 C7 11.34 7 10.68 7 10 C5.63562616 8.73038468 5.63562616 8.73038468 3.80859375 7.49609375 C2.77387939 6.76265747 2.77387939 6.76265747 1.71826172 6.0144043 C0.96561035 5.49402588 0.21295898 4.97364746 -0.5625 4.4375 C-1.33319824 3.9010083 -2.10389648 3.3645166 -2.89794922 2.81176758 C-33.48318517 -18.26775529 -66.95629847 -30.22001542 -104.25 -30.25 C-105.00400085 -30.25067474 -105.75800171 -30.25134949 -106.53485107 -30.25204468 C-124.7706039 -30.2261835 -141.82566609 -28.3605927 -159 -22 Z " fill="#ECEBEB" transform="translate(379,86)"/>
<path d="M0 0 C3.91841827 1.30613942 6.32640809 2.83129848 9 6 C9 6.66 9 7.32 9 8 C9.57492187 8.24621094 10.14984375 8.49242187 10.7421875 8.74609375 C13.35639827 10.19793053 15.06336208 11.90287549 17.125 14.0625 C19.77905 16.91571933 19.77905 16.91571933 23 19 C22.75 21.375 22.75 21.375 22 24 C19.9375 25.3125 19.9375 25.3125 18 26 C18 26.66 18 27.32 18 28 C14.53846154 31 14.53846154 31 12 31 C11.75894531 31.53367187 11.51789063 32.06734375 11.26953125 32.6171875 C9.65398765 35.64943857 7.68916431 38.33276239 5.6875 41.125 C-5.01921913 56.45565679 -9.3325166 71.97231747 -10.2800293 90.53759766 C-10.70118306 98.00638949 -11.53582302 104.85132941 -16.25 110.875 C-20.78221501 114.37716615 -24.72274538 116.33405894 -30.5 116 C-36.22738341 115.10082035 -40.01640564 112.38216706 -43.671875 107.9921875 C-45.66906921 103.49262642 -45.44456315 99.24402083 -45.375 94.375 C-45.36484863 93.35317627 -45.35469727 92.33135254 -45.34423828 91.27856445 C-44.6983439 59.06145305 -32.9701134 31.44603272 -11 8 C-10.50371094 7.42765625 -10.00742187 6.8553125 -9.49609375 6.265625 C-7.38831951 3.91337538 -6.38953645 3.04328183 -3.1875 2.6875 C-2.465625 2.790625 -1.74375 2.89375 -1 3 C-0.67 2.01 -0.34 1.02 0 0 Z " fill="#25397D" transform="translate(273,266)"/>
<path d="M0 0 C-0.37109375 1.921875 -0.37109375 1.921875 -1 4 C-3.0625 5.25 -3.0625 5.25 -5 6 C-5 6.66 -5 7.32 -5 8 C-6.4609375 9.40234375 -6.4609375 9.40234375 -8.375 10.9375 C-10.83901524 12.91986617 -12.20466437 14.30699655 -14 17 C-14.66 17 -15.32 17 -16 17 C-16.268125 17.763125 -16.53625 18.52625 -16.8125 19.3125 C-18.69281768 23.5679558 -18.69281768 23.5679558 -21 25 C-26.1047795 24.80736681 -29.50818429 23.24590786 -34 21 C-54.91582758 13.98393125 -76.65978785 16.35910879 -97 24 C-97.99 24.495 -97.99 24.495 -99 25 C-104.81101979 25.4896025 -110.16766768 25.80365453 -115.5625 23.4375 C-120.33433205 18.66566795 -122.22723408 15.12935716 -122.5 8.4375 C-122.31952032 3.56454864 -121.2727804 0.74032046 -118 -3 C-117.62230469 -3.4846875 -117.24460938 -3.969375 -116.85546875 -4.46875 C-113.9854681 -6.8372558 -110.60339803 -7.82173459 -107.125 -9 C-106.36123047 -9.26200195 -105.59746094 -9.52400391 -104.81054688 -9.79394531 C-68.96149355 -21.83862725 -32.7064395 -18.7574049 0 0 Z " fill="#28316E" transform="translate(267,258)"/>
<path d="M0 0 C4.48867669 1.49622556 5.26553414 4.57585706 7.38671875 8.64453125 C16.17565426 26.92466588 20.99162067 45.5751048 21.4375 65.875 C21.47198242 66.75486572 21.50646484 67.63473145 21.54199219 68.54125977 C21.58240872 74.81236098 20.20766451 79.24849733 16 84 C11.75666179 87.08824276 7.44282687 88.75585203 2.08203125 88.44921875 C-3.55094536 87.23384856 -7.85110338 84.37867594 -11.5 80 C-13.71407995 75.5718401 -14.12137578 71.36399221 -14.4296875 66.46484375 C-14.50316406 65.40716797 -14.57664062 64.34949219 -14.65234375 63.25976562 C-14.79892249 61.0726565 -14.93970146 58.8851497 -15.07421875 56.69726562 C-15.70097905 47.9066869 -16.91525147 39.14956636 -20.75 31.125 C-22.21869335 27.45326662 -22.14194537 25.7521062 -21 22 C-19.5625 19.125 -19.5625 19.125 -18 17 C-17.34 17 -16.68 17 -16 17 C-15.7525 16.443125 -15.505 15.88625 -15.25 15.3125 C-12.66299492 10.5265406 -9.13345528 7.02986265 -4.9375 3.625 C-4.08027344 2.91601562 -3.22304688 2.20703125 -2.33984375 1.4765625 C-1.56769531 0.98929687 -0.79554688 0.50203125 0 0 Z " fill="#379E4A" transform="translate(300,294)"/>
<path d="M0 0 C5.78954616 3.11744793 9.8421155 6.47996412 12.25 12.75 C13.60859446 18.87351994 13.51446222 23.91007112 11.25 29.75 C10.59 30.74 9.93 31.73 9.25 32.75 C8.59 32.75 7.93 32.75 7.25 32.75 C6.92 33.74 6.59 34.73 6.25 35.75 C2.05536509 39.7833028 -3.05968234 40.58901737 -8.6875 41.125 C-15.30212312 40.89514823 -20.08725316 37.76609097 -24.625 33.125 C-28.21435455 28.67946914 -29.70689308 24.46597717 -29.75 18.75 C-28.82691469 12.34434737 -26.92263061 7.839987 -21.75 3.75 C-14.57804094 -1.41381052 -8.46574339 -2.82191446 0 0 Z " fill="#44A247" transform="translate(368.75,306.25)"/>
<path d="M0 0 C5.39042504 2.95747958 8.56554391 7.14256366 10.4140625 12.96484375 C11.81968585 19.12170637 11.18065574 23.68932456 8.08203125 29.21484375 C4.64292771 34.45217137 0.83554607 37.15136093 -5.11328125 39.03515625 C-12.17928653 39.82437848 -18.00811364 38.85526326 -23.73828125 34.47265625 C-28.54944011 30.09887547 -30.63938794 24.93117095 -31.67578125 18.59765625 C-30.88666884 13.59994431 -28.96178363 9.22365834 -26.11328125 5.03515625 C-25.12328125 4.70515625 -24.13328125 4.37515625 -23.11328125 4.03515625 C-23.11328125 3.37515625 -23.11328125 2.71515625 -23.11328125 2.03515625 C-15.07125118 -2.13478527 -8.65258314 -3.65482392 0 0 Z " fill="#2D3D80" transform="translate(198.11328125,306.96484375)"/>
<path d="M0 0 C0.78552246 0.01047363 1.57104492 0.02094727 2.38037109 0.03173828 C3.23115234 0.03818359 4.08193359 0.04462891 4.95849609 0.05126953 C6.29267578 0.07640625 6.29267578 0.07640625 7.65380859 0.10205078 C8.99958984 0.11558594 8.99958984 0.11558594 10.37255859 0.12939453 C12.59157445 0.15300108 14.81005937 0.18592768 17.02880859 0.22705078 C19.85018573 7.61208974 20.76026765 16.916799 17.71630859 24.41455078 C15.18505859 28.63330078 15.18505859 28.63330078 13.02880859 30.22705078 C12.36880859 30.22705078 11.70880859 30.22705078 11.02880859 30.22705078 C10.69880859 31.21705078 10.36880859 32.20705078 10.02880859 33.22705078 C9.36880859 33.22705078 8.70880859 33.22705078 8.02880859 33.22705078 C8.02880859 33.88705078 8.02880859 34.54705078 8.02880859 35.22705078 C6.3891365 36.5934442 4.71770732 37.92199268 3.02880859 39.22705078 C1.97693359 40.34080078 1.97693359 40.34080078 0.90380859 41.47705078 C-0.97119141 43.22705078 -0.97119141 43.22705078 -3.97119141 43.22705078 C-4.02053797 37.42465464 -4.05688543 31.62237997 -4.08105469 25.81982422 C-4.09112768 23.84486769 -4.10478662 21.86992612 -4.12207031 19.89501953 C-4.1462618 17.0603466 -4.15766132 14.22587041 -4.16650391 11.39111328 C-4.17682648 10.5046109 -4.18714905 9.61810852 -4.19778442 8.70474243 C-4.19818211 6.54419127 -4.09391675 4.3841136 -3.97119141 2.22705078 C-1.97119141 0.22705078 -1.97119141 0.22705078 0 0 Z " fill="#F08131" transform="translate(279.97119140625,174.77294921875)"/>
<path d="M0 0 C-16.31970772 11.58426644 -16.31970772 11.58426644 -22.4375 15.75 C-23.09621094 16.19859375 -23.75492188 16.6471875 -24.43359375 17.109375 C-26 18 -26 18 -28 18 C-27.99777939 19.02508163 -27.99555878 20.05016327 -27.99327087 21.10630798 C-27.97303959 30.7450696 -27.95802793 40.38382694 -27.94818783 50.02260494 C-27.94295897 54.97853922 -27.93586126 59.93445642 -27.92456055 64.89038086 C-27.91373178 69.66898836 -27.90772319 74.44757938 -27.90512276 79.2261982 C-27.90326849 81.05353619 -27.89964784 82.88087324 -27.89426994 84.70820427 C-27.88705964 87.25853329 -27.88600905 89.80879337 -27.88647461 92.35913086 C-27.88287933 93.12229614 -27.87928406 93.88546143 -27.87557983 94.67175293 C-27.88594784 99.88594784 -27.88594784 99.88594784 -29 101 C-30.61005376 101.21584801 -32.22831436 101.37117728 -33.84765625 101.5 C-34.84603516 101.5825 -35.84441406 101.665 -36.87304688 101.75 C-37.92556641 101.8325 -38.97808594 101.915 -40.0625 102 C-46.73120461 102.53651426 -53.36844923 103.10836292 -60 104 C-61.51203901 99.93300819 -62.26002622 96.5114019 -62.31884766 92.17822266 C-62.33871735 91.05751373 -62.35858704 89.93680481 -62.37905884 88.78213501 C-62.39061005 87.58817108 -62.40216125 86.39420715 -62.4140625 85.1640625 C-62.43342865 83.92957367 -62.4527948 82.69508484 -62.4727478 81.42318726 C-62.53240097 77.49052788 -62.57887263 73.557839 -62.625 69.625 C-62.66212543 66.95439547 -62.70224525 64.28384636 -62.7421875 61.61328125 C-62.83809096 55.07562886 -62.92318029 48.53790298 -63 42 C-64.09795898 42.64976807 -65.19591797 43.29953613 -66.32714844 43.96899414 C-69.40481068 45.79034327 -71.6087776 46.52337789 -75.25 46.4375 C-76.08015625 46.43621094 -76.9103125 46.43492187 -77.765625 46.43359375 C-80.45126029 45.91243026 -81.34340947 45.1395464 -83 43 C-83.6875 40.8125 -83.6875 40.8125 -84 39 C-83.525625 39.495 -83.05125 39.99 -82.5625 40.5 C-77.99339887 43.17459578 -73.00553871 42.50138468 -68 41.25 C-65.81884696 40.16619851 -65.81884696 40.16619851 -65.1875 37.875 C-65.0946875 36.946875 -65.0946875 36.946875 -65 36 C-64.67 36.66 -64.34 37.32 -64 38 C-61.03 37.505 -61.03 37.505 -58 37 C-57.8029398 38.56132309 -57.61779845 40.12415264 -57.4375 41.6875 C-57.33308594 42.55761719 -57.22867188 43.42773438 -57.12109375 44.32421875 C-57 47 -57 47 -57.46484375 49.2734375 C-58.22914052 53.16744586 -58.14664128 56.97869231 -58.125 60.9375 C-58.12209961 62.22769043 -58.12209961 62.22769043 -58.11914062 63.54394531 C-58.0534058 73.70727933 -57.54723252 83.85291183 -57 94 C-56.34 94 -55.68 94 -55 94 C-55 96 -55 96 -56.5 97.625 C-56.995 98.07875 -57.49 98.5325 -58 99 C-56.515 99.99 -56.515 99.99 -55 101 C-54.505 99.515 -54.505 99.515 -54 98 C-46.74 98 -39.48 98 -32 98 C-31.19868216 94.79472863 -30.82854858 92.3456535 -30.70117188 89.10302734 C-30.66181519 88.12911041 -30.6224585 87.15519348 -30.58190918 86.15176392 C-30.54456665 85.0987912 -30.50722412 84.04581848 -30.46875 82.9609375 C-30.42721802 81.85744965 -30.38568604 80.75396179 -30.34289551 79.61703491 C-29.84751373 65.77228324 -29.65131283 51.92134315 -29.44775391 38.06982422 C-29.39626627 34.64282585 -29.33909325 31.21595858 -29.28125 27.7890625 C-29.26767456 26.74553619 -29.25409912 25.70200989 -29.2401123 24.62686157 C-29.21503601 23.18662125 -29.21503601 23.18662125 -29.18945312 21.71728516 C-29.17066101 20.45472397 -29.17066101 20.45472397 -29.15148926 19.16665649 C-29 17 -29 17 -28 14 C-26.68 14 -25.36 14 -24 14 C-24 13.34 -24 12.68 -24 12 C-23.360625 11.87625 -22.72125 11.7525 -22.0625 11.625 C-21.381875 11.41875 -20.70125 11.2125 -20 11 C-19.67 10.34 -19.34 9.68 -19 9 C-16.4375 8.375 -16.4375 8.375 -14 8 C-14 7.34 -14 6.68 -14 6 C-13.01 6 -12.02 6 -11 6 C-11 5.34 -11 4.68 -11 4 C-10.01 4 -9.02 4 -8 4 C-8 3.34 -8 2.68 -8 2 C-3.61016949 -1.20338983 -3.61016949 -1.20338983 0 0 Z " fill="#E68C62" transform="translate(234,134)"/>
<path d="M0 0 C0.83265381 0.00523682 1.66530762 0.01047363 2.52319336 0.01586914 C3.42231445 0.0190918 4.32143555 0.02231445 5.24780273 0.02563477 C6.66609375 0.03820312 6.66609375 0.03820312 8.11303711 0.05102539 C9.06243164 0.05553711 10.01182617 0.06004883 10.98999023 0.06469727 C13.34356776 0.07652429 15.69702188 0.09300514 18.05053711 0.11352539 C19.50674414 3.02593946 19.22093142 5.62028693 19.23803711 8.86352539 C19.2522168 10.07524414 19.26639648 11.28696289 19.28100586 12.53540039 C19.05295532 16.07598157 18.32838363 18.82041894 17.05053711 22.11352539 C13.90472288 22.14241053 10.75894242 22.16028462 7.61303711 22.17602539 C6.71520508 22.1844043 5.81737305 22.1927832 4.89233398 22.20141602 C3.61132812 22.20625 3.61132812 22.20625 2.30444336 22.21118164 C1.51368408 22.21641846 0.7229248 22.22165527 -0.09179688 22.22705078 C-1.94946289 22.11352539 -1.94946289 22.11352539 -2.94946289 21.11352539 C-3.04827086 19.63699875 -3.08025535 18.15585303 -3.08227539 16.67602539 C-3.08356445 15.78141602 -3.08485352 14.88680664 -3.08618164 13.96508789 C-3.08038086 12.55356445 -3.08038086 12.55356445 -3.07446289 11.11352539 C-3.07833008 10.17250977 -3.08219727 9.23149414 -3.08618164 8.26196289 C-3.08489258 7.36735352 -3.08360352 6.47274414 -3.08227539 5.55102539 C-3.0805835 4.3115918 -3.0805835 4.3115918 -3.07885742 3.04711914 C-2.90250169 0.41176559 -2.63789571 0.15361572 0 0 Z " fill="#EE7930" transform="translate(252.949462890625,174.886474609375)"/>
<path d="M0 0 C0.87454834 0.00523682 1.74909668 0.01047363 2.65014648 0.01586914 C3.59438477 0.0190918 4.53862305 0.02231445 5.51147461 0.02563477 C6.50469727 0.03401367 7.49791992 0.04239258 8.52124023 0.05102539 C9.51833008 0.05553711 10.51541992 0.06004883 11.54272461 0.06469727 C14.01478872 0.07652532 16.48673541 0.0930069 18.95874023 0.11352539 C19.77209113 4.88437465 19.99558413 9.16883869 19.58374023 13.98852539 C19.49350586 15.12032227 19.40327148 16.25211914 19.31030273 17.41821289 C18.95874023 20.11352539 18.95874023 20.11352539 17.95874023 21.11352539 C14.9936186 21.40532165 12.05606843 21.6292807 9.08374023 21.80102539 C8.25487305 21.8609668 7.42600586 21.9209082 6.57202148 21.98266602 C5.7740918 22.0297168 4.97616211 22.07676758 4.15405273 22.12524414 C3.05601318 22.19424927 3.05601318 22.19424927 1.93579102 22.26464844 C-0.04125977 22.11352539 -0.04125977 22.11352539 -3.04125977 20.11352539 C-3.39770508 18.15820312 -3.39770508 18.15820312 -3.36938477 15.79711914 C-3.36165039 14.52771484 -3.36165039 14.52771484 -3.35375977 13.23266602 C-3.33313477 12.34772461 -3.31250977 11.4627832 -3.29125977 10.55102539 C-3.28610352 9.6622168 -3.28094727 8.7734082 -3.27563477 7.85766602 C-3.1818962 0.17696229 -3.1818962 0.17696229 0 0 Z " fill="#F2942C" transform="translate(279.041259765625,147.886474609375)"/>
<path d="M0 0 C3.47914941 -0.02887814 6.95826831 -0.04675687 10.4375 -0.0625 C11.92733398 -0.07506836 11.92733398 -0.07506836 13.44726562 -0.08789062 C14.39150391 -0.09111328 15.33574219 -0.09433594 16.30859375 -0.09765625 C17.62041626 -0.10551147 17.62041626 -0.10551147 18.95874023 -0.11352539 C21 0 21 0 22 1 C22.4593254 7.68723737 21.79070037 14.36376475 21 21 C14.74534844 22.13720937 8.34210188 22.56780578 2 22 C-0.59343446 19.40656554 -0.40847128 17.98865058 -0.6875 14.375 C-0.77386719 13.37210938 -0.86023438 12.36921875 -0.94921875 11.3359375 C-1.00845676 7.44445583 -0.55538835 3.85013576 0 0 Z " fill="#EF852F" transform="translate(250,148)"/>
<path d="M0 0 C3.99887575 0.57126796 6.59653716 1.87283572 10 4 C11.2684375 4.4021875 11.2684375 4.4021875 12.5625 4.8125 C16.07125983 6.52189581 17.13127893 8.59643773 19 12 C19.3877036 14.80787593 19.56528981 17.22439213 19.54589844 20.02490234 C19.56140495 21.19664505 19.56140495 21.19664505 19.57722473 22.39205933 C19.60656534 24.95689798 19.60815001 27.5209445 19.609375 30.0859375 C19.6243626 31.87099708 19.64109097 33.65604282 19.65948486 35.44107056 C19.7031056 40.12636973 19.72314574 44.81148185 19.73822021 49.49694824 C19.75781035 54.28323401 19.79977822 59.06931833 19.83984375 63.85546875 C19.91508866 73.23691695 19.96541475 82.61831994 20 92 C21.35544922 92.07347656 21.35544922 92.07347656 22.73828125 92.1484375 C23.91777344 92.22320312 25.09726562 92.29796875 26.3125 92.375 C27.48425781 92.44460937 28.65601563 92.51421875 29.86328125 92.5859375 C33 93 33 93 36 95 C33.95863605 95.05451714 31.91684144 95.09302485 29.875 95.125 C28.73804688 95.14820313 27.60109375 95.17140625 26.4296875 95.1953125 C22.94242233 94.99672109 20.2446138 94.2524801 17 93 C16.13582443 87.07793073 15.87838761 81.37354946 15.9375 75.39453125 C15.94746019 73.51798647 15.95713332 71.64144015 15.96655273 69.76489258 C15.97290741 68.79226471 15.97926208 67.81963684 15.98580933 66.8175354 C16.00012825 63.78534232 15.99728051 60.75364502 15.98852539 57.72143555 C15.9426091 40.6110768 15.9426091 40.6110768 16.23143005 33.02650452 C17.32357902 20.40938674 17.32357902 20.40938674 13.48046875 8.85888672 C9.49403517 5.05506151 5.08571606 2.98287846 0 1 C0 0.67 0 0.34 0 0 Z " fill="#E8A96A" transform="translate(326,141)"/>
<path d="M0 0 C0.33 0 0.66 0 1 0 C2.5541146 6.81419477 2.5541146 6.81419477 1.0234375 10.08984375 C-0.22925006 11.88096719 -1.40983666 13.49896086 -3 15 C-3.66 15 -4.32 15 -5 15 C-5.12375 16.27875 -5.2475 17.5575 -5.375 18.875 C-5.74805758 22.28048277 -6.28846921 25.58693336 -7 28.9375 C-7.89885102 33.18060556 -8.3702653 37.35026269 -8.65625 41.67578125 C-9 44 -9 44 -9.984375 46.15625 C-11.51080507 50.4302542 -11.55051801 54.67985051 -11.75 59.1875 C-11.80542969 60.10208984 -11.86085937 61.01667969 -11.91796875 61.95898438 C-11.96050781 62.83232422 -12.00304687 63.70566406 -12.046875 64.60546875 C-12.08651367 65.40106201 -12.12615234 66.19665527 -12.16699219 67.01635742 C-12.19505632 69.23514147 -12.19505632 69.23514147 -10 71 C-10 71.99 -10 72.98 -10 74 C-9.34 74 -8.68 74 -8 74 C-8 74.99 -8 75.98 -8 77 C-7.2265625 76.690625 -7.2265625 76.690625 -6.4375 76.375 C-4 76 -4 76 -0.6875 77.125 C3.95517809 78.22665243 5.80387671 77.05847558 10 75 C11.32 75 12.64 75 14 75 C14.66 73.35 15.32 71.7 16 70 C16.66 70 17.32 70 18 70 C17.52300119 74.29298926 15.20196975 76.28528652 12 79 C7.21811697 81.75877867 3.56834931 82.48172037 -1.7890625 81.640625 C-6.44817487 80.29063484 -9.61102293 77.66807059 -12.671875 73.9921875 C-14.66906921 69.49262642 -14.44456315 65.24402083 -14.375 60.375 C-14.36484863 59.35317627 -14.35469727 58.33135254 -14.34423828 57.27856445 C-13.93705403 36.96827738 -9.05508838 18.19031029 0 0 Z " fill="#53699E" transform="translate(242,300)"/>
<path d="M0 0 C6.77810538 4.26967268 13.49903067 8.61226651 20.13671875 13.09765625 C21.92808533 14.2878275 23.7407789 15.44715701 25.58203125 16.55859375 C30.89003675 19.80677622 34.74715627 23.05379228 37 29 C37.89476747 33.7055182 37.52072916 36.95854168 35.375 41.25 C28.91707182 48.72760106 28.91707182 48.72760106 24.0859375 49.4140625 C18.23910194 49.57054715 15.844154 49.6331155 11 46 C17.93 46.495 17.93 46.495 25 47 C25 46.34 25 45.68 25 45 C25.78375 44.938125 26.5675 44.87625 27.375 44.8125 C30.13277831 44.27213652 30.13277831 44.27213652 31.25 42 C33.321761 34.2261365 33.321761 34.2261365 31.375 26.6875 C27.83122223 22.67743568 24.89700663 20.21749312 19.8125 18.5625 C17.72265625 17.85546875 17.72265625 17.85546875 16 17 C14.75 14.375 14.75 14.375 14 12 C12.19747131 11.29805007 12.19747131 11.29805007 10 11 C7.98473831 10.03112419 5.98166034 9.0358679 4 8 C4 7.01 4 6.02 4 5 C3.34 5 2.68 5 2 5 C2 4.34 2 3.68 2 3 C1.34 3 0.68 3 0 3 C0 2.01 0 1.02 0 0 Z " fill="#EAB465" transform="translate(369,131)"/>
<path d="M0 0 C-16.31970772 11.58426644 -16.31970772 11.58426644 -22.4375 15.75 C-23.09621094 16.19859375 -23.75492188 16.6471875 -24.43359375 17.109375 C-26 18 -26 18 -28 18 C-27.99777939 19.02508163 -27.99555878 20.05016327 -27.99327087 21.10630798 C-27.97303959 30.7450696 -27.95802793 40.38382694 -27.94818783 50.02260494 C-27.94295897 54.97853922 -27.93586126 59.93445642 -27.92456055 64.89038086 C-27.91373178 69.66898836 -27.90772319 74.44757938 -27.90512276 79.2261982 C-27.90326849 81.05353619 -27.89964784 82.88087324 -27.89426994 84.70820427 C-27.88705964 87.25853329 -27.88600905 89.80879337 -27.88647461 92.35913086 C-27.88287933 93.12229614 -27.87928406 93.88546143 -27.87557983 94.67175293 C-27.88594784 99.88594784 -27.88594784 99.88594784 -29 101 C-31.69235776 101.23678716 -34.36498156 101.42198025 -37.0625 101.5625 C-38.20041992 101.62727539 -38.20041992 101.62727539 -39.36132812 101.69335938 C-41.24065438 101.79973633 -43.12030244 101.90039934 -45 102 C-45 101.34 -45 100.68 -45 100 C-38.565 99.01 -38.565 99.01 -32 98 C-31.19868216 94.79472863 -30.82854858 92.3456535 -30.70117188 89.10302734 C-30.66181519 88.12911041 -30.6224585 87.15519348 -30.58190918 86.15176392 C-30.52589539 84.57230484 -30.52589539 84.57230484 -30.46875 82.9609375 C-30.42721802 81.85744965 -30.38568604 80.75396179 -30.34289551 79.61703491 C-29.84751373 65.77228324 -29.65131283 51.92134315 -29.44775391 38.06982422 C-29.39626627 34.64282585 -29.33909325 31.21595858 -29.28125 27.7890625 C-29.26767456 26.74553619 -29.25409912 25.70200989 -29.2401123 24.62686157 C-29.22339478 23.66670135 -29.20667725 22.70654114 -29.18945312 21.71728516 C-29.17692505 20.8755777 -29.16439697 20.03387024 -29.15148926 19.16665649 C-29 17 -29 17 -28 14 C-26.68 14 -25.36 14 -24 14 C-24 13.34 -24 12.68 -24 12 C-23.360625 11.87625 -22.72125 11.7525 -22.0625 11.625 C-21.381875 11.41875 -20.70125 11.2125 -20 11 C-19.67 10.34 -19.34 9.68 -19 9 C-16.4375 8.375 -16.4375 8.375 -14 8 C-14 7.34 -14 6.68 -14 6 C-13.01 6 -12.02 6 -11 6 C-11 5.34 -11 4.68 -11 4 C-10.01 4 -9.02 4 -8 4 C-8 3.34 -8 2.68 -8 2 C-3.61016949 -1.20338983 -3.61016949 -1.20338983 0 0 Z " fill="#D78666" transform="translate(234,134)"/>
<path d="M0 0 C1.99569601 0.35820185 3.99497534 0.69835912 6 1 C6 1.66 6 2.32 6 3 C7.03060547 3.09087891 7.03060547 3.09087891 8.08203125 3.18359375 C9.43361328 3.30927734 9.43361328 3.30927734 10.8125 3.4375 C11.70582031 3.51871094 12.59914063 3.59992188 13.51953125 3.68359375 C16 4 16 4 19 5 C21.75853417 4.68563225 21.75853417 4.68563225 24.6875 4.0625 C26.17830078 3.77052734 26.17830078 3.77052734 27.69921875 3.47265625 C28.45847656 3.31667969 29.21773438 3.16070312 30 3 C25.7175436 7.42520494 23.7496175 8.1837429 17.5625 8.3125 C11.64843359 8.27651177 7.40183842 7.28970968 1.984375 5.08984375 C-12.72588958 -0.28209842 -28.60126754 0.65370167 -44 1 C-43.34 0.67 -42.68 0.34 -42 0 C-42 -0.66 -42 -1.32 -42 -2 C-12.63782823 -3.74316907 -12.63782823 -3.74316907 0 0 Z " fill="#5FA467" transform="translate(370,275)"/>
<path d="M0 0 C3.47914941 -0.02887814 6.95826831 -0.04675687 10.4375 -0.0625 C11.92733398 -0.07506836 11.92733398 -0.07506836 13.44726562 -0.08789062 C14.39150391 -0.09111328 15.33574219 -0.09433594 16.30859375 -0.09765625 C17.62041626 -0.10551147 17.62041626 -0.10551147 18.95874023 -0.11352539 C21 0 21 0 22 1 C22.4593254 7.68723737 21.79070037 14.36376475 21 21 C14.74534844 22.13720937 8.34210188 22.56780578 2 22 C-0.59343446 19.40656554 -0.40847128 17.98865058 -0.6875 14.375 C-0.77386719 13.37210938 -0.86023438 12.36921875 -0.94921875 11.3359375 C-1.00845676 7.44445583 -0.55538835 3.85013576 0 0 Z M2 3 C1.92674564 5.6986905 1.90777649 8.36502556 1.9375 11.0625 C1.958125 13.681875 1.97875 16.30125 2 19 C7.61 19 13.22 19 19 19 C19 13.39 19 7.78 19 2 C16.380625 1.979375 13.76125 1.95875 11.0625 1.9375 C10.2362915 1.928396 9.41008301 1.91929199 8.55883789 1.90991211 C4.98658311 1.54987734 4.98658311 1.54987734 2 3 Z " fill="#E3A169" transform="translate(250,148)"/>
<path d="M0 0 C0.87454834 0.00523682 1.74909668 0.01047363 2.65014648 0.01586914 C3.59438477 0.0190918 4.53862305 0.02231445 5.51147461 0.02563477 C6.50469727 0.03401367 7.49791992 0.04239258 8.52124023 0.05102539 C9.51833008 0.05553711 10.51541992 0.06004883 11.54272461 0.06469727 C14.01478872 0.07652532 16.48673541 0.0930069 18.95874023 0.11352539 C19.77209113 4.88437465 19.99558413 9.16883869 19.58374023 13.98852539 C19.49350586 15.12032227 19.40327148 16.25211914 19.31030273 17.41821289 C18.95874023 20.11352539 18.95874023 20.11352539 17.95874023 21.11352539 C14.9936186 21.40532165 12.05606843 21.6292807 9.08374023 21.80102539 C8.25487305 21.8609668 7.42600586 21.9209082 6.57202148 21.98266602 C5.7740918 22.0297168 4.97616211 22.07676758 4.15405273 22.12524414 C3.05601318 22.19424927 3.05601318 22.19424927 1.93579102 22.26464844 C-0.04125977 22.11352539 -0.04125977 22.11352539 -3.04125977 20.11352539 C-3.39770508 18.15820312 -3.39770508 18.15820312 -3.36938477 15.79711914 C-3.36165039 14.52771484 -3.36165039 14.52771484 -3.35375977 13.23266602 C-3.33313477 12.34772461 -3.31250977 11.4627832 -3.29125977 10.55102539 C-3.28610352 9.6622168 -3.28094727 8.7734082 -3.27563477 7.85766602 C-3.1818962 0.17696229 -3.1818962 0.17696229 0 0 Z M-0.04125977 2.11352539 C-0.04125977 7.72352539 -0.04125977 13.33352539 -0.04125977 19.11352539 C5.56874023 19.11352539 11.17874023 19.11352539 16.95874023 19.11352539 C16.95874023 13.50352539 16.95874023 7.89352539 16.95874023 2.11352539 C11.34874023 2.11352539 5.73874023 2.11352539 -0.04125977 2.11352539 Z " fill="#EAB16A" transform="translate(279.041259765625,147.886474609375)"/>
<path d="M0 0 C0 0.33 0 0.66 0 1 C-8.80096903 0.49758248 -17.41971325 -0.79919384 -25.66308594 -4.05029297 C-29.59830323 -5.17028092 -33.1732512 -5.17161147 -37.21484375 -5.01171875 C-37.98880997 -4.98906448 -38.76277618 -4.96641022 -39.56019592 -4.94306946 C-41.18995223 -4.89332762 -42.81955764 -4.83839952 -44.44897461 -4.77856445 C-46.9260409 -4.68791933 -49.40318905 -4.61305665 -51.88085938 -4.54101562 C-53.47138381 -4.49050832 -55.06188011 -4.43910551 -56.65234375 -4.38671875 C-57.38484848 -4.36373215 -58.11735321 -4.34074554 -58.87205505 -4.31706238 C-62.25388953 -4.18967108 -65.47929672 -3.93112835 -68.83813477 -3.44848633 C-71.92535562 -3.01058773 -74.01686582 -3.18641795 -77 -4 C-77 -4.33 -77 -4.66 -77 -5 C-50.78332199 -10.98424172 -25.34208716 -8.20940852 0 0 Z " fill="#8DBF9A" transform="translate(391,249)"/>
<path d="M0 0 C4.96687793 1.58211362 8.57222279 4.53154236 12.625 7.6875 C18.06809176 11.85383243 23.55176909 15.73921594 29.390625 19.33984375 C34.81335657 22.78993494 40.44375378 26.44375378 45 31 C39.34777987 29.91056982 34.08905566 28.74809006 29 26 C27.3125 23.5 27.3125 23.5 26 21 C24.68036291 19.98199424 23.34990354 18.97751635 22 18 C22 17.34 22 16.68 22 16 C20.88625 15.855625 19.7725 15.71125 18.625 15.5625 C15 15 15 15 13 14 C13 13.34 13 12.68 13 12 C10.525 11.01 10.525 11.01 8 10 C8 9.01 8 8.02 8 7 C7.4225 6.9175 6.845 6.835 6.25 6.75 C3.3460664 5.78202213 1.96259396 4.31305716 0 2 C0 1.34 0 0.68 0 0 Z " fill="#EAB459" transform="translate(285,74)"/>
<path d="M0 0 C0.33 0 0.66 0 1 0 C1.02590289 6.80541139 1.04309113 13.61080957 1.05493164 20.41625977 C1.05988102 22.71899897 1.06664218 25.02173517 1.07543945 27.32446289 C1.12199864 39.84888424 1.05086348 52.36076631 0.62109375 64.87890625 C0.59048355 65.92465317 0.55987335 66.97040009 0.52833557 68.0478363 C0.48990036 69.0201973 0.45146515 69.99255829 0.41186523 70.99438477 C0.38084213 71.84331802 0.34981903 72.69225128 0.31785583 73.56690979 C-0.03842311 76.29411731 -0.88452747 78.49583414 -2 81 C-5.3 81 -8.6 81 -12 81 C-12 80.34 -12 79.68 -12 79 C-9.36 79 -6.72 79 -4 79 C-3.67 76.69 -3.34 74.38 -3 72 C-2.34 72 -1.68 72 -1 72 C-1.08378906 70.95585937 -1.16757813 69.91171875 -1.25390625 68.8359375 C-1.9304506 59.44454787 -1.91055729 50.31466873 -1.33398438 40.91992188 C-0.83806603 31.65204533 -1.24924805 22.45073695 -1.76953125 13.18994141 C-1.82625 12.05218262 -1.88296875 10.91442383 -1.94140625 9.7421875 C-2.00013916 8.7301123 -2.05887207 7.71803711 -2.11938477 6.67529297 C-1.99511676 3.89057145 -1.44033151 2.35512246 0 0 Z " fill="#E97F41" transform="translate(204,152)"/>
<path d="M0 0 C1.98 0.66 3.96 1.32 6 2 C6 2.66 6 3.32 6 4 C4.68 3.67 3.36 3.34 2 3 C2.00222061 3.76199203 2.00444122 4.52398407 2.00672913 5.30906677 C2.02673157 12.47551712 2.04197388 19.64195401 2.05181217 26.80842495 C2.05704008 30.49314498 2.06413605 34.17784203 2.07543945 37.86254883 C2.08627162 41.41570831 2.09227753 44.96884563 2.09487724 48.52202034 C2.0967309 49.88045666 2.10035038 51.23889171 2.10573006 52.59731865 C2.11294475 54.49382223 2.11340809 56.39034793 2.11352539 58.28686523 C2.115746 59.36830307 2.11796661 60.44974091 2.12025452 61.56394958 C2 64 2 64 1 65 C-6.80689408 65.38394561 -6.80689408 65.38394561 -11 63 C-9.54176788 62.9729957 -8.08339325 62.95360213 -6.625 62.9375 C-5.40683594 62.92009766 -5.40683594 62.92009766 -4.1640625 62.90234375 C-2 63 -2 63 0 64 C0 42.88 0 21.76 0 0 Z " fill="#E7AE7C" transform="translate(374,173)"/>
<path d="M0 0 C1.80411967 2.75924185 2.0127245 3.88972103 1.625 7.25 C1.41875 8.1575 1.2125 9.065 1 10 C0.34 10 -0.32 10 -1 10 C-0.67 11.98 -0.34 13.96 0 16 C0.66 16 1.32 16 2 16 C2 18.64 2 21.28 2 24 C9.24603053 24.93578754 15.49123687 25.07351503 22.625 23.375 C25.10789523 22.98296391 26.63697002 23.21232334 29 24 C21.40401329 27.8408601 14.48629132 29.09902571 6 28 C1.57745622 26.06028782 -1.07541512 23.47114447 -3.3046875 19.125 C-4.88960682 14.28120164 -5.18899414 8.67523681 -3.09375 3.9609375 C-2 2.3125 -2 2.3125 0 0 Z " fill="#616D9B" transform="translate(149,255)"/>
<path d="M0 0 C-0.61875 0.268125 -1.2375 0.53625 -1.875 0.8125 C-4.2995233 1.95556848 -4.2995233 1.95556848 -6 5 C-6.66 5 -7.32 5 -8 5 C-8 5.66 -8 6.32 -8 7 C-9.62553283 8.70680947 -11.29115995 10.37660195 -13 12 C-12.13375 12.804375 -12.13375 12.804375 -11.25 13.625 C-5 20.22222222 -5 20.22222222 -5 25 C-6.1725131 24.04882866 -7.33787015 23.08882991 -8.5 22.125 C-9.47453125 21.32449219 -9.47453125 21.32449219 -10.46875 20.5078125 C-10.9740625 20.01023437 -11.479375 19.51265625 -12 19 C-12 18.34 -12 17.68 -12 17 C-12.99 16.67 -13.98 16.34 -15 16 C-16.33333333 14.66666667 -17.66666667 13.33333333 -19 12 C-19.66 12 -20.32 12 -21 12 C-21.33 12.66 -21.66 13.32 -22 14 C-23.32 13.67 -24.64 13.34 -26 13 C-23.67515462 11.21701311 -21.34112272 9.44889499 -19 7.6875 C-18.35160156 7.18798828 -17.70320313 6.68847656 -17.03515625 6.17382812 C-6.06959685 -2.02319895 -6.06959685 -2.02319895 0 0 Z " fill="#1F8D52" transform="translate(294,255)"/>
<path d="M0 0 C0.66 0 1.32 0 2 0 C6.19514348 10.78751181 6.44899799 22.57395835 7 34 C7.99 34 8.98 34 10 34 C10.33 34.33 10.66 34.66 11 35 C11.99 34.505 11.99 34.505 13 34 C12.773125 35.093125 12.54625 36.18625 12.3125 37.3125 C11.59853617 40.90531273 11.59853617 40.90531273 13.4375 42.9375 C14.2109375 43.4634375 14.2109375 43.4634375 15 44 C13.3125 44.8125 13.3125 44.8125 11 45 C5.47849289 40.26727962 3.44306444 36.33449326 2.71875 29.24853516 C2.6465625 28.27190918 2.574375 27.2952832 2.5 26.2890625 C2.4175 25.20882813 2.335 24.12859375 2.25 23.015625 C2.1675 21.89671875 2.085 20.7778125 2 19.625 C1.28141962 9.78106337 1.28141962 9.78106337 0 0 Z " fill="#64AC63" transform="translate(283,334)"/>
<path d="M0 0 C6.27 0 12.54 0 19 0 C21.52880408 7.58641223 22.80857033 16.49981098 19.6875 24.1875 C17.15625 28.40625 17.15625 28.40625 15 30 C14.34 30 13.68 30 13 30 C12.67 30.99 12.34 31.98 12 33 C11.34 33 10.68 33 10 33 C10 33.66 10 34.32 10 35 C8 36.625 8 36.625 6 38 C6.495 35.03 6.495 35.03 7 32 C7.99 31.67 8.98 31.34 10 31 C10.33 30.34 10.66 29.68 11 29 C11.99 29 12.98 29 14 29 C14.33 27.68 14.66 26.36 15 25 C15.99 25 16.98 25 18 25 C18 17.41 18 9.82 18 2 C12.39 2 6.78 2 1 2 C0.67 1.34 0.34 0.68 0 0 Z " fill="#E8A86E" transform="translate(278,175)"/>
<path d="M0 0 C0.33 0 0.66 0 1 0 C2.5541146 6.81419477 2.5541146 6.81419477 1.0234375 10.08984375 C-0.22925006 11.88096719 -1.40983666 13.49896086 -3 15 C-3.66 15 -4.32 15 -5 15 C-5.12375 16.27875 -5.2475 17.5575 -5.375 18.875 C-5.8418462 23.13663891 -6.64248155 27.25951197 -7.53515625 31.44921875 C-8.01027465 34.05638109 -8.24342713 36.60823252 -8.4375 39.25 C-8.79015799 43.39046604 -9.82185507 46.40132576 -12 50 C-12.33 50 -12.66 50 -13 50 C-14.07570297 32.70907081 -7.29026355 15.42171135 0 0 Z " fill="#435184" transform="translate(242,300)"/>
<path d="M0 0 C0.83265381 0.00523682 1.66530762 0.01047363 2.52319336 0.01586914 C3.42231445 0.0190918 4.32143555 0.02231445 5.24780273 0.02563477 C6.66609375 0.03820312 6.66609375 0.03820312 8.11303711 0.05102539 C9.06243164 0.05553711 10.01182617 0.06004883 10.98999023 0.06469727 C13.34356776 0.07652429 15.69702188 0.09300514 18.05053711 0.11352539 C19.55210585 3.11666287 19.14334915 5.90420062 19.11303711 9.23852539 C19.10401367 10.51985352 19.09499023 11.80118164 19.08569336 13.12133789 C19.0740918 14.10875977 19.06249023 15.09618164 19.05053711 16.11352539 C18.39053711 16.11352539 17.73053711 16.11352539 17.05053711 16.11352539 C17.05053711 11.49352539 17.05053711 6.87352539 17.05053711 2.11352539 C11.11053711 2.11352539 5.17053711 2.11352539 -0.94946289 2.11352539 C-0.94946289 8.38352539 -0.94946289 14.65352539 -0.94946289 21.11352539 C4.99053711 21.11352539 10.93053711 21.11352539 17.05053711 21.11352539 C17.05053711 21.44352539 17.05053711 21.77352539 17.05053711 22.11352539 C13.90472288 22.14241053 10.75894242 22.16028462 7.61303711 22.17602539 C6.71520508 22.1844043 5.81737305 22.1927832 4.89233398 22.20141602 C3.61132812 22.20625 3.61132812 22.20625 2.30444336 22.21118164 C1.51368408 22.21641846 0.7229248 22.22165527 -0.09179688 22.22705078 C-1.94946289 22.11352539 -1.94946289 22.11352539 -2.94946289 21.11352539 C-3.04827086 19.63699875 -3.08025535 18.15585303 -3.08227539 16.67602539 C-3.08356445 15.78141602 -3.08485352 14.88680664 -3.08618164 13.96508789 C-3.08038086 12.55356445 -3.08038086 12.55356445 -3.07446289 11.11352539 C-3.07833008 10.17250977 -3.08219727 9.23149414 -3.08618164 8.26196289 C-3.08489258 7.36735352 -3.08360352 6.47274414 -3.08227539 5.55102539 C-3.0805835 4.3115918 -3.0805835 4.3115918 -3.07885742 3.04711914 C-2.90250169 0.41176559 -2.63789571 0.15361572 0 0 Z " fill="#E6A076" transform="translate(252.949462890625,174.886474609375)"/>
<path d="M0 0 C6.77083287 4.26509157 13.47748203 8.61338428 20.12109375 13.07421875 C21.98035062 14.31792789 23.84709394 15.55055029 25.72265625 16.76953125 C26.53605469 17.29933594 27.34945313 17.82914063 28.1875 18.375 C28.90292969 18.83648437 29.61835938 19.29796875 30.35546875 19.7734375 C32 21 32 21 33 23 C29.06751463 22.33125942 25.52438558 21.207088 21.8125 19.75 C20.76707031 19.35296875 19.72164063 18.9559375 18.64453125 18.546875 C15.48734648 16.70013177 15.07266817 15.40333463 14 12 C12.19747131 11.29805007 12.19747131 11.29805007 10 11 C7.98473831 10.03112419 5.98166034 9.0358679 4 8 C4 7.01 4 6.02 4 5 C3.34 5 2.68 5 2 5 C2 4.34 2 3.68 2 3 C1.34 3 0.68 3 0 3 C0 2.01 0 1.02 0 0 Z " fill="#ECB962" transform="translate(369,131)"/>
<path d="M0 0 C0.33 0 0.66 0 1 0 C1 21.12 1 42.24 1 64 C-11 63 -11 63 -14 62 C-16.22574335 61.77548542 -18.45581519 61.59217122 -20.6875 61.4375 C-21.86699219 61.35371094 -23.04648437 61.26992187 -24.26171875 61.18359375 C-25.61716797 61.09271484 -25.61716797 61.09271484 -27 61 C-27 60.67 -27 60.34 -27 60 C-18.3725342 59.79294082 -10.40371809 59.78537311 -2 62 C-0.99529596 58.98588787 -0.87330362 56.9759891 -0.87060547 53.82592773 C-0.86745331 52.77150986 -0.86430115 51.71709198 -0.86105347 50.63072205 C-0.8630777 49.49316971 -0.86510193 48.35561737 -0.8671875 47.18359375 C-0.86623077 46.01619156 -0.86527405 44.84878937 -0.86428833 43.64601135 C-0.8636075 41.17717434 -0.86545505 38.70833553 -0.86962891 36.23950195 C-0.87498327 32.44934087 -0.86967814 28.65929803 -0.86328125 24.86914062 C-0.86394195 22.47395807 -0.86522296 20.07877559 -0.8671875 17.68359375 C-0.86516327 16.54401718 -0.86313904 15.40444061 -0.86105347 14.23033142 C-0.86420563 13.1790657 -0.86735779 12.12779999 -0.87060547 11.04467773 C-0.87140106 10.11662827 -0.87219666 9.1885788 -0.87301636 8.23240662 C-0.8545017 5.96124893 -0.8545017 5.96124893 -2 4 C-1.0625 1.875 -1.0625 1.875 0 0 Z " fill="#EA9143" transform="translate(373,173)"/>
<path d="M0 0 C0 0.99 0 1.98 0 3 C0.33 3.99 0.66 4.98 1 6 C-0.2375 6.61875 -0.2375 6.61875 -1.5 7.25 C-2.325 7.8275 -3.15 8.405 -4 9 C-4 10.32 -4 11.64 -4 13 C-4.78375 13.0825 -5.5675 13.165 -6.375 13.25 C-9.10584868 13.73203756 -9.10584868 13.73203756 -10.3125 15.875 C-11.15391014 18.10348125 -11.15391014 18.10348125 -11 21 C-11.97753644 22.02196992 -12.9805881 23.01979625 -14 24 C-15.17574711 26.09989652 -15.17574711 26.09989652 -16 28 C-16.66 28 -17.32 28 -18 28 C-18.33 28.66 -18.66 29.32 -19 30 C-18.72688413 17.70978576 -8.02681436 8.31711506 0 0 Z " fill="#383E6F" transform="translate(262,274)"/>
<path d="M0 0 C0.66 0.33 1.32 0.66 2 1 C-1.33333333 4.33333333 -4.66666667 7.66666667 -8 11 C-8.515625 11.556875 -9.03125 12.11375 -9.5625 12.6875 C-11.23590886 14.21539505 -12.97951495 14.98975748 -15 16 C-15.41894531 16.49113281 -15.83789062 16.98226562 -16.26953125 17.48828125 C-18.62417735 19.54527457 -20.62252369 19.71873892 -23.6875 20.1875 C-24.68136719 20.34605469 -25.67523438 20.50460938 -26.69921875 20.66796875 C-27.45847656 20.77753906 -28.21773437 20.88710937 -29 21 C-23.96494047 15.2704495 -16.64928736 9.36787256 -9 8 C-9 7.34 -9 6.68 -9 6 C-7.03125 4.4921875 -7.03125 4.4921875 -4.5 2.875 C-3.6646875 2.33617188 -2.829375 1.79734375 -1.96875 1.2421875 C-1.3190625 0.83226563 -0.669375 0.42234375 0 0 Z " fill="#EC9454" transform="translate(198,118)"/>
<path d="M0 0 C7.21647234 10.82470851 7.16968047 26.63233784 7.25 39.25 C7.25926514 40.17989746 7.26853027 41.10979492 7.27807617 42.06787109 C7.27396729 42.93750488 7.2698584 43.80713867 7.265625 44.703125 C7.26336914 45.48333008 7.26111328 46.26353516 7.25878906 47.06738281 C7 49 7 49 5 51 C4.98018066 50.43603516 4.96036133 49.87207031 4.93994141 49.29101562 C4.84368189 46.69360426 4.73441948 44.09688897 4.625 41.5 C4.5940625 40.613125 4.563125 39.72625 4.53125 38.8125 C4.34619976 34.61802801 4.03955955 30.71717247 2.9375 26.65625 C2.08839728 23.34474938 1.85659731 21.31777719 2.375 18 C2.54128906 16.8553125 2.54128906 16.8553125 2.7109375 15.6875 C2.80632812 15.130625 2.90171875 14.57375 3 14 C2.34 14 1.68 14 1 14 C0.67 9.38 0.34 4.76 0 0 Z " fill="#8EC188" transform="translate(314,321)"/>
<path d="M0 0 C1.4540625 0.7425 1.4540625 0.7425 2.9375 1.5 C2.9375 1.83 2.9375 2.16 2.9375 2.5 C-3.8125 3.625 -3.8125 3.625 -6.0625 2.5 C-6.0625 3.16 -6.0625 3.82 -6.0625 4.5 C-7.00222656 4.37431641 -7.00222656 4.37431641 -7.9609375 4.24609375 C-9.18683594 4.09333984 -9.18683594 4.09333984 -10.4375 3.9375 C-11.65566406 3.78087891 -11.65566406 3.78087891 -12.8984375 3.62109375 C-15.11149186 3.31762672 -15.11149186 3.31762672 -17.0625 4.5 C-17.0625 3.84 -17.0625 3.18 -17.0625 2.5 C-18.21176266 3.45421808 -19.35680541 4.41352045 -20.5 5.375 C-21.13808594 5.90867187 -21.77617187 6.44234375 -22.43359375 6.9921875 C-24.17055004 8.4222757 -24.17055004 8.4222757 -25.0625 10.5 C-25.7225 10.5 -26.3825 10.5 -27.0625 10.5 C-25.74478785 6.31181221 -24.33523352 4.56508824 -20.625 2.25 C-19.84253906 1.74984375 -19.06007813 1.2496875 -18.25390625 0.734375 C-12.53817064 -2.48518374 -5.98998613 -2.58630766 0 0 Z " fill="#4DA26E" transform="translate(369.0625,306.5)"/>
<path d="M0 0 C3.99887575 0.57126796 6.59653716 1.87283572 10 4 C11.299375 4.433125 11.299375 4.433125 12.625 4.875 C15.90555622 6.42894768 16.51630124 7.66379737 18 11 C18.38986423 14.44517259 18.32732015 17.85000682 18.25 21.3125 C18.24484375 22.22451172 18.2396875 23.13652344 18.234375 24.07617188 C18.17261554 29.46082437 17.77456108 34.67176936 17 40 C16.67 40 16.34 40 16 40 C16.04825928 39.17387207 16.09651855 38.34774414 16.14624023 37.49658203 C17.46526196 22.49139356 17.46526196 22.49139356 13.48046875 8.66113281 C9.54658255 4.95326181 4.98805626 2.94480172 0 1 C0 0.67 0 0.34 0 0 Z " fill="#F3D7A1" transform="translate(326,141)"/>
<path d="M0 0 C0 0.66 0 1.32 0 2 C-1.8515625 3.41796875 -1.8515625 3.41796875 -4.625 5.1875 C-11.0631081 9.36839189 -17.41306887 13.66723412 -23.75 18 C-25.70311153 19.33335306 -27.65623554 20.66668785 -29.609375 22 C-31.07297586 22.99991336 -32.53654123 23.99987869 -34 25 C-34.33 23.68 -34.66 22.36 -35 21 C-33.68 21 -32.36 21 -31 21 C-31 19.68 -31 18.36 -31 17 C-29.35 17 -27.7 17 -26 17 C-25.67 16.01 -25.34 15.02 -25 14 C-23.2578125 13.19140625 -23.2578125 13.19140625 -21.125 12.5625 C-17.52517802 11.35614255 -16.10789963 10.21732049 -14 7 C-13.01 7 -12.02 7 -11 7 C-11 6.01 -11 5.02 -11 4 C-9.35 4 -7.7 4 -6 4 C-6 3.01 -6 2.02 -6 1 C-3 0 -3 0 0 0 Z " fill="#EDB470" transform="translate(271,107)"/>
<path d="M0 0 C6.33047871 -0.3723811 11.72536275 0.74174135 17.8515625 2.34375 C21.00182712 3.00038084 23.79447985 3.03591619 27 3 C27.99 3.33 28.98 3.66 30 4 C32.75853417 3.68563225 32.75853417 3.68563225 35.6875 3.0625 C37.17830078 2.77052734 37.17830078 2.77052734 38.69921875 2.47265625 C39.45847656 2.31667969 40.21773438 2.16070312 41 2 C36.7175436 6.42520494 34.7496175 7.1837429 28.5625 7.3125 C22.58470816 7.28196991 18.09735901 6.31809843 12.62109375 4.0234375 C8.5339347 2.42755721 4.31589387 1.71151396 0 1 C0 0.67 0 0.34 0 0 Z " fill="#79B376" transform="translate(359,276)"/>
<path d="M0 0 C0.33 0 0.66 0 1 0 C1 12.87 1 25.74 1 39 C1.66 39 2.32 39 3 39 C3 38.34 3 37.68 3 37 C3.99 37.33 4.98 37.66 6 38 C4.1875 40 4.1875 40 2 42 C1.01 42 0.02 42 -1 42 C-1.02464638 36.17928378 -1.0428343 30.35859766 -1.05493164 24.5378418 C-1.05997267 22.55606559 -1.06680538 20.57429311 -1.07543945 18.5925293 C-1.08751515 15.75047891 -1.09323045 12.90847753 -1.09765625 10.06640625 C-1.10281754 9.17474258 -1.10797882 8.28307892 -1.11329651 7.36439514 C-1.11349177 5.24259399 -1.0621003 3.1208922 -1 1 C-0.67 0.67 -0.34 0.34 0 0 Z " fill="#ECAB81" transform="translate(277,176)"/>
<path d="M0 0 C5.32683552 -0.50731767 7.82526994 0.73281996 12 4 C13.33333333 5.33333333 14.66666667 6.66666667 16 8 C16.804375 8.474375 17.60875 8.94875 18.4375 9.4375 C22.51907282 11.92626391 25.36196357 15.04294536 28 19 C24.02737752 17.60421372 21.03801608 15.72341883 17.6875 13.1875 C9.1503096 6.33716696 9.1503096 6.33716696 -1 3 C-0.67 2.01 -0.34 1.02 0 0 Z " fill="#EDB465" transform="translate(272,104)"/>
<path d="M0 0 C0.99 0 1.98 0 3 0 C3.33 8.25 3.66 16.5 4 25 C3.34 25 2.68 25 2 25 C2 26.65 2 28.3 2 30 C1.67 30 1.34 30 1 30 C0.66027199 27.18814406 0.32809788 24.37571764 0 21.5625 C-0.09539062 20.77939453 -0.19078125 19.99628906 -0.2890625 19.18945312 C-1.85794151 5.57382454 -1.85794151 5.57382454 0 0 Z " fill="#E2DEE0" transform="translate(99,216)"/>
<path d="M0 0 C1.32 0.33 2.64 0.66 4 1 C4 1.66 4 2.32 4 3 C5.36125 3.2165625 5.36125 3.2165625 6.75 3.4375 C10 4 10 4 11.71875 4.5625 C15.08475553 5.20803531 18.36053647 4.8412177 21.75 4.5625 C22.79607422 4.48418945 22.79607422 4.48418945 23.86328125 4.40429688 C25.57596203 4.27525928 27.28805066 4.13840386 29 4 C26.35954494 7.9606826 24.59830543 8.03583918 20 9 C13.6563197 9.60416003 9.28412252 8.65913794 4 5 C1.5 2.25 1.5 2.25 0 0 Z " fill="#6DAD54" transform="translate(344,338)"/>
<path d="M0 0 C0 6.57115876 -4.9491897 11.28926796 -9.31640625 15.71484375 C-11 17 -11 17 -14 17 C-14.33 20.63 -14.66 24.26 -15 28 C-17.21011486 23.57977027 -17.21917784 22.59536264 -16 18 C-14.5625 15.125 -14.5625 15.125 -13 13 C-12.34 13 -11.68 13 -11 13 C-10.7525 12.443125 -10.505 11.88625 -10.25 11.3125 C-7.66854853 6.53681479 -4.31771677 3.23828758 0 0 Z " fill="#4B9D6E" transform="translate(295,298)"/>
<path d="M0 0 C4.12494151 -0.05784708 8.24977944 -0.09354407 12.375 -0.125 C13.550625 -0.14175781 14.72625 -0.15851563 15.9375 -0.17578125 C17.61972656 -0.18544922 17.61972656 -0.18544922 19.3359375 -0.1953125 C20.37282715 -0.20578613 21.4097168 -0.21625977 22.47802734 -0.22705078 C25 0 25 0 27 2 C4.84615385 5.23076923 4.84615385 5.23076923 0 2 C0 1.34 0 0.68 0 0 Z " fill="#E1E1E2" transform="translate(263,403)"/>
<path d="M0 0 C0 0.66 0 1.32 0 2 C1.32 2.33 2.64 2.66 4 3 C3.30962646 3.02505615 2.61925293 3.0501123 1.90795898 3.07592773 C-1.24901409 3.1926566 -4.40574457 3.31503178 -7.5625 3.4375 C-8.64853516 3.47681641 -9.73457031 3.51613281 -10.85351562 3.55664062 C-17.49616441 3.80543212 -17.49616441 3.80543212 -24.09375 4.5625 C-27.05874111 5.00884275 -29.12616304 4.78377372 -32 4 C-32 3.67 -32 3.34 -32 3 C-21.17295538 0.77363097 -11.06746256 -0.43496578 0 0 Z " fill="#63A87D" transform="translate(346,241)"/>
<path d="M0 0 C0 0.33 0 0.66 0 1 C-8.70213607 2.16281933 -17.36788151 2.11579895 -26.125 2.0625 C-27.57291511 2.05747252 -29.02083192 2.05291183 -30.46875 2.04882812 C-33.97920259 2.03792705 -37.48959007 2.02073202 -41 2 C-41 1.67 -41 1.34 -41 1 C-27.23233073 -0.88736715 -13.85499917 -1.94456129 0 0 Z " fill="#606182" transform="translate(223,242)"/>
<path d="M0 0 C0 0.66 0 1.32 0 2 C4.29 2 8.58 2 13 2 C13 2.33 13 2.66 13 3 C8.80173929 3.24229526 4.60322817 3.45716205 0.40234375 3.64697266 C-1.02576864 3.71533285 -2.45354642 3.79111007 -3.88085938 3.87451172 C-5.93576228 3.99328396 -7.99040235 4.08510903 -10.046875 4.171875 C-11.28276367 4.2347168 -12.51865234 4.29755859 -13.79199219 4.36230469 C-17 4 -17 4 -19.43457031 1.98925781 C-19.95116211 1.33280273 -20.46775391 0.67634766 -21 0 C-13.81949816 -0.71148265 -7.12971149 -1.25818438 0 0 Z " fill="#EEEDED" transform="translate(272,53)"/>
<path d="M0 0 C2.1384731 4.27694619 2.68373375 7.34892224 2 12 C0.15246861 17.42275428 -2.75822185 21.22953053 -7 25 C-7.33 23.68 -7.66 22.36 -8 21 C-7.01 20.34 -6.02 19.68 -5 19 C-4.27034634 16.43717258 -4.27034634 16.43717258 -4 14 C-4.66 14 -5.32 14 -6 14 C-4.84826645 11.53199953 -3.95216435 9.95216435 -2 8 C-2 9.32 -2 10.64 -2 12 C-1.34 12 -0.68 12 0 12 C0 8.04 0 4.08 0 0 Z " fill="#535A89" transform="translate(207,318)"/>
<path d="M0 0 C1.1732325 3.5196975 0.73741381 4.46289881 -0.3671875 7.9140625 C-2.14558702 14.05854411 -2.71878208 20.0109193 -3.125 26.375 C-3.27090632 28.46632397 -3.41925468 30.55747932 -3.5703125 32.6484375 C-3.62977051 33.55770996 -3.68922852 34.46698242 -3.75048828 35.40380859 C-3.9990073 37.98967085 -4.4458352 40.46365232 -5 43 C-5.33 43 -5.66 43 -6 43 C-6.02895225 39.70835171 -6.0467823 36.41673601 -6.0625 33.125 C-6.07506836 31.71927734 -6.07506836 31.71927734 -6.08789062 30.28515625 C-6.09111328 29.38925781 -6.09433594 28.49335938 -6.09765625 27.5703125 C-6.10289307 26.74289551 -6.10812988 25.91547852 -6.11352539 25.06298828 C-6 23 -6 23 -5 21 C-4.60772162 18.29127482 -4.25430502 15.59248307 -3.9375 12.875 C-3.84662109 12.12089844 -3.75574219 11.36679687 -3.66210938 10.58984375 C-3.43809148 8.72695812 -3.21861427 6.86352748 -3 5 C-2.34 5 -1.68 5 -1 5 C-0.67 3.35 -0.34 1.7 0 0 Z " fill="#717FA5" transform="translate(266,327)"/>
<path d="M0 0 C5.01416329 1.28269293 7.70837509 2.99667241 11 7 C14.00043094 12.10073259 14.36018379 16.03178125 13.59375 21.75390625 C12.80832003 24.72510516 11.4869212 26.23508818 9 28 C9.875 23.125 9.875 23.125 11 22 C11.55373887 15.57662905 10.67650481 12.29849222 7 7 C6.34 6.67 5.68 6.34 5 6 C5 5.34 5 4.68 5 4 C2.525 3.01 2.525 3.01 0 2 C0 1.34 0 0.68 0 0 Z " fill="#89B785" transform="translate(391,250)"/>
<path d="M0 0 C-1.75 5.75 -1.75 5.75 -4 8 C-4.2816485 10.56656322 -4.2816485 10.56656322 -4.1875 13.4375 C-4.18105469 14.40558594 -4.17460937 15.37367188 -4.16796875 16.37109375 C-4.105232 19.10945962 -4.105232 19.10945962 -3 22 C-2.34 21.67 -1.68 21.34 -1 21 C-0.34 22.98 0.32 24.96 1 27 C-3.26340736 25.47735451 -4.92612655 22.93320826 -7 19 C-8.6621935 12.82292958 -8.10411443 8.54306148 -5 3 C-2.58064516 0 -2.58064516 0 0 0 Z " fill="#E79F7F" transform="translate(151,151)"/>
<path d="M0 0 C1.98 0.66 3.96 1.32 6 2 C6 2.66 6 3.32 6 4 C4.35 3.67 2.7 3.34 1 3 C1 22.14 1 41.28 1 61 C0.67 61 0.34 61 0 61 C0 40.87 0 20.74 0 0 Z " fill="#EF9E5B" transform="translate(374,173)"/>
<path d="M0 0 C1.9375 0.0625 1.9375 0.0625 4 1 C4.309375 1.969375 4.61875 2.93875 4.9375 3.9375 C5.65709371 7.12671055 5.65709371 7.12671055 8.140625 8.15234375 C11.40979145 9.12148189 14.41087141 9.41884069 17.8125 9.625 C19.55466797 9.73714844 19.55466797 9.73714844 21.33203125 9.8515625 C22.21246094 9.90054687 23.09289062 9.94953125 24 10 C24 9.34 24 8.68 24 8 C25.32 8.33 26.64 8.66 28 9 C24.9360775 12.0639225 21.83504896 12.15056975 17.625 12.1875 C10.69492886 12.0629399 6.58651044 9.99630371 1.41796875 5.53515625 C0 4 0 4 -1 1 C-0.67 0.67 -0.34 0.34 0 0 Z " fill="#5A6D9C" transform="translate(171,334)"/>
<path d="M0 0 C0.33 0 0.66 0 1 0 C1 10.56 1 21.12 1 32 C-6.92 32.495 -6.92 32.495 -15 33 C-15 32.34 -15 31.68 -15 31 C-10.71 30.34 -6.42 29.68 -2 29 C-1.12669134 25.50676538 -0.81091314 22.705568 -0.68359375 19.140625 C-0.64169922 18.02558594 -0.59980469 16.91054687 -0.55664062 15.76171875 C-0.51732422 14.60285156 -0.47800781 13.44398438 -0.4375 12.25 C-0.39431641 11.07566406 -0.35113281 9.90132812 -0.30664062 8.69140625 C-0.20065206 5.79438549 -0.09858362 2.89728065 0 0 Z " fill="#E48160" transform="translate(204,203)"/>
<path d="M0 0 C0.33 0 0.66 0 1 0 C1.04955872 4.89297012 1.0857946 9.78579305 1.10986328 14.67895508 C1.11990057 16.34239244 1.13353331 18.00581225 1.15087891 19.66918945 C1.17522749 22.06466005 1.18650588 24.45989668 1.1953125 26.85546875 C1.20563507 27.5952446 1.21595764 28.33502045 1.22659302 29.09721375 C1.22747437 33.18331761 0.82364095 36.3243223 -1 40 C-4.3 40 -7.6 40 -11 40 C-11 39.34 -11 38.68 -11 38 C-8.36 38 -5.72 38 -3 38 C-2.67 35.69 -2.34 33.38 -2 31 C-1.34 31 -0.68 31 0 31 C-0.08378906 29.85144531 -0.16757813 28.70289063 -0.25390625 27.51953125 C-0.88237393 18.20212079 -1.06816113 9.30121844 0 0 Z " fill="#E66F3A" transform="translate(203,193)"/>
<path d="M0 0 C0.66 0 1.32 0 2 0 C5.21010098 8.56026929 5.13586667 16.9815431 5.0625 26 C5.05798828 27.06089844 5.05347656 28.12179687 5.04882812 29.21484375 C5.03713843 31.80995598 5.02075276 34.40494709 5 37 C4.67 37 4.34 37 4 37 C3.21765881 33.42323386 2.7697977 29.93916034 2.5 26.2890625 C2.4175 25.20882813 2.335 24.12859375 2.25 23.015625 C2.1675 21.89671875 2.085 20.7778125 2 19.625 C1.28141962 9.78106337 1.28141962 9.78106337 0 0 Z " fill="#88C08F" transform="translate(283,334)"/>
<path d="M0 0 C-0.309375 0.598125 -0.61875 1.19625 -0.9375 1.8125 C-2.10209704 4.08956772 -2.10209704 4.08956772 -3 7 C-8.06435712 10.51404372 -11.88444025 11.57083791 -18 12 C-14.922555 8.69955174 -11.63121175 6.24183581 -7.875 3.75 C-6.82054687 3.04359375 -5.76609375 2.3371875 -4.6796875 1.609375 C-2 0 -2 0 0 0 Z " fill="#E88549" transform="translate(169,139)"/>
<path d="M0 0 C0.66 0.33 1.32 0.66 2 1 C0.625 2.5 0.625 2.5 -1 4 C-1.66 4 -2.32 4 -3 4 C-3.66 5.32 -4.32 6.64 -5 8 C-5.66 8 -6.32 8 -7 8 C-7.33 8.99 -7.66 9.98 -8 11 C-8.66 11 -9.32 11 -10 11 C-10.33 11.99 -10.66 12.98 -11 14 C-15.455 14.495 -15.455 14.495 -20 15 C-16.54832172 11.19339336 -12.59023309 8.58427567 -8.3125 5.8125 C-3.93920725 3.17208892 -3.93920725 3.17208892 0 0 Z " fill="#EFAB62" transform="translate(227,98)"/>
<path d="M0 0 C0.33 0 0.66 0 1 0 C2.34862385 21.00917431 2.34862385 21.00917431 1 30 C-0.33333333 30 -1.66666667 30 -3 30 C-3 26.7 -3 23.4 -3 20 C-2.34 20 -1.68 20 -1 20 C-0.67 13.4 -0.34 6.8 0 0 Z " fill="#E5E4E5" transform="translate(449,221)"/>
<path d="M0 0 C3.1875 2 3.1875 2 5 4 C3.68 4 2.36 4 1 4 C1 3.34 1 2.68 1 2 C-5.71243202 1.3905688 -5.71243202 1.3905688 -11.75 3.8125 C-12.4925 4.534375 -13.235 5.25625 -14 6 C-19.29969376 9.13655345 -19.29969376 9.13655345 -22.18359375 8.57421875 C-22.78300781 8.38472656 -23.38242187 8.19523437 -24 8 C-22.20909242 6.8529806 -20.41725003 5.70742065 -18.625 4.5625 C-17.12839844 3.60537109 -17.12839844 3.60537109 -15.6015625 2.62890625 C-10.47903061 -0.5784448 -5.98401114 -0.66393207 0 0 Z " fill="#EAC17C" transform="translate(280,70)"/>
<path d="M0 0 C0.33 0 0.66 0 1 0 C1.33 6.27 1.66 12.54 2 19 C-4.27 19 -10.54 19 -17 19 C-17 18.34 -17 17.68 -17 17 C-15.92878906 16.93941406 -14.85757813 16.87882812 -13.75390625 16.81640625 C-12.35675609 16.73201463 -10.95962143 16.64736594 -9.5625 16.5625 C-8.85544922 16.52318359 -8.14839844 16.48386719 -7.41992188 16.44335938 C-3.91309581 16.52375562 -3.91309581 16.52375562 -1 15 C-0.76346477 12.47403741 -0.57826308 9.96892793 -0.4375 7.4375 C-0.39431641 6.72658203 -0.35113281 6.01566406 -0.30664062 5.28320312 C-0.20028223 3.52238088 -0.09961154 1.7612168 0 0 Z " fill="#D9804A" transform="translate(269,177)"/>
<path d="M0 0 C-2.66402342 1.89956847 -5.33170249 3.79394112 -8 5.6875 C-8.74378906 6.21794922 -9.48757812 6.74839844 -10.25390625 7.29492188 C-15.06819763 10.70678924 -19.9583061 13.93394262 -25 17 C-24.67 15.35 -24.34 13.7 -24 12 C-23.360625 11.87625 -22.72125 11.7525 -22.0625 11.625 C-21.381875 11.41875 -20.70125 11.2125 -20 11 C-19.67 10.34 -19.34 9.68 -19 9 C-16.4375 8.375 -16.4375 8.375 -14 8 C-14 7.34 -14 6.68 -14 6 C-13.01 6 -12.02 6 -11 6 C-11 5.34 -11 4.68 -11 4 C-10.01 4 -9.02 4 -8 4 C-8 3.34 -8 2.68 -8 2 C-3.61016949 -1.20338983 -3.61016949 -1.20338983 0 0 Z " fill="#ECB375" transform="translate(234,134)"/>
<path d="M0 0 C3.79189077 1.36589614 6.84381378 3.10454649 10.125 5.4375 C10.97320312 6.03433594 11.82140625 6.63117188 12.6953125 7.24609375 C14.64309316 8.72838784 16.33162439 10.21712802 18 12 C16.35 12 14.7 12 13 12 C13 11.34 13 10.68 13 10 C10.69 9.67 8.38 9.34 6 9 C5.67 8.01 5.34 7.02 5 6 C4.01 6.33 3.02 6.66 2 7 C1.34 4.69 0.68 2.38 0 0 Z " fill="#EEB85A" transform="translate(350,119)"/>
<path d="M0 0 C0.66 0.33 1.32 0.66 2 1 C-0.42548583 6.41069915 -3.45725337 8.80381737 -9 11 C-11.8651583 11.41404022 -14.05410848 11.28508628 -17 11 C-18.32 10.01 -19.64 9.02 -21 8 C-16.05 8 -11.1 8 -6 8 C-6 7.34 -6 6.68 -6 6 C-5.01 6 -4.02 6 -3 6 C-2.67 5.01 -2.34 4.02 -2 3 C-1.34 3 -0.68 3 0 3 C0 2.01 0 1.02 0 0 Z " fill="#9BC490" transform="translate(317,371)"/>
<path d="M0 0 C0.99290126 2.97870377 1.05524548 4.59182885 0.87890625 7.66796875 C0.83056641 8.56064453 0.78222656 9.45332031 0.73242188 10.37304688 C0.67634766 11.30181641 0.62027344 12.23058594 0.5625 13.1875 C0.51029297 14.12787109 0.45808594 15.06824219 0.40429688 16.03710938 C0.27468082 18.35841501 0.13971819 20.67928409 0 23 C-0.66 23 -1.32 23 -2 23 C-2.99 25.475 -2.99 25.475 -4 28 C-4.66 27.34 -5.32 26.68 -6 26 C-5.319375 24.9275 -4.63875 23.855 -3.9375 22.75 C-2.27014121 19.91530653 -2.27014121 19.91530653 -2.1875 16.6875 C-2.78166399 15.4534671 -3.38748583 14.22502834 -4 13 C-3.34 13 -2.68 13 -2 13 C-2.02320313 12.39671875 -2.04640625 11.7934375 -2.0703125 11.171875 C-2.08835937 10.37265625 -2.10640625 9.5734375 -2.125 8.75 C-2.14820313 7.96109375 -2.17140625 7.1721875 -2.1953125 6.359375 C-1.9828378 3.79268059 -1.28654105 2.2083933 0 0 Z " fill="#2B468D" transform="translate(260,347)"/>
<path d="M0 0 C0.66 0.33 1.32 0.66 2 1 C0.6875 2.5 0.6875 2.5 -1 4 C-1.99 4 -2.98 4 -4 4 C-4.66 5.65 -5.32 7.3 -6 9 C-7.32 9 -8.64 9 -10 9 C-10 9.99 -10 10.98 -10 12 C-11.32 12 -12.64 12 -14 12 C-14.33 12.66 -14.66 13.32 -15 14 C-16.32 13.67 -17.64 13.34 -19 13 C-16.58606009 11.20455714 -14.16902994 9.41356187 -11.75 7.625 C-11.06808594 7.11710937 -10.38617188 6.60921875 -9.68359375 6.0859375 C-9.01972656 5.59609375 -8.35585938 5.10625 -7.671875 4.6015625 C-7.0644043 4.15119629 -6.45693359 3.70083008 -5.83105469 3.23681641 C-3.92949684 1.95237747 -2.12605042 0.86915044 0 0 Z " fill="#4D9A71" transform="translate(287,255)"/>
<path d="M0 0 C1.80411967 2.75924185 2.0127245 3.88972103 1.625 7.25 C1.41875 8.1575 1.2125 9.065 1 10 C0.34 10 -0.32 10 -1 10 C-0.67 11.65 -0.34 13.3 0 15 C-0.99 15.33 -1.98 15.66 -3 16 C-4.20643566 12.38069302 -4.32268559 9.80768995 -4 6 C-2 2.5625 -2 2.5625 0 0 Z " fill="#32417C" transform="translate(149,255)"/>
<path d="M0 0 C2.97 0.33 5.94 0.66 9 1 C9.33 2.65 9.66 4.3 10 6 C10.556875 6.061875 11.11375 6.12375 11.6875 6.1875 C14.94987173 7.33373872 16.68667874 9.49390197 19 12 C15.74559017 12 15.06193978 11.62533887 12.4609375 9.8828125 C11.79835938 9.44066406 11.13578125 8.99851563 10.453125 8.54296875 C9.76734375 8.07503906 9.0815625 7.60710937 8.375 7.125 C7.68148438 6.66480469 6.98796875 6.20460937 6.2734375 5.73046875 C1.13352587 2.26705173 1.13352587 2.26705173 0 0 Z " fill="#EDB968" transform="translate(300,123)"/>
<path d="M0 0 C2.65763099 5.31526199 2.05292371 9.25986751 1 15 C-0.4375 18.1875 -0.4375 18.1875 -2 20 C-2.66 20 -3.32 20 -4 20 C-4.33 20.99 -4.66 21.98 -5 23 C-5.66 23 -6.32 23 -7 23 C-7 21.68 -7 20.36 -7 19 C-6.34 19 -5.68 19 -5 19 C-4.34 17.68 -3.68 16.36 -3 15 C-2.34 15 -1.68 15 -1 15 C-0.67 10.05 -0.34 5.1 0 0 Z " fill="#99C189" transform="translate(380,319)"/>
<path d="M0 0 C0.66 0 1.32 0 2 0 C1.3781072 3.64731724 -0.19447458 5.92163013 -2.375 8.875 C-4.97881955 12.48933679 -7.18344604 15.93946762 -9 20 C-9.33 20 -9.66 20 -10 20 C-10 17.69 -10 15.38 -10 13 C-9.01 12.67 -8.02 12.34 -7 12 C-7 11.34 -7 10.68 -7 10 C-6.34 10 -5.68 10 -5 10 C-4.67 8.02 -4.34 6.04 -4 4 C-3.01 4 -2.02 4 -1 4 C-0.67 2.68 -0.34 1.36 0 0 Z " fill="#4E5982" transform="translate(280,300)"/>
<path d="M0 0 C3.99887575 0.57126796 6.59653716 1.87283572 10 4 C10.9075 4.309375 11.815 4.61875 12.75 4.9375 C15 6 15 6 15.8125 8.125 C15.874375 8.74375 15.93625 9.3625 16 10 C11.94513862 9.37011862 9.10576554 7.26959988 5.75 5 C4.67234375 4.278125 3.5946875 3.55625 2.484375 2.8125 C1.66453125 2.214375 0.8446875 1.61625 0 1 C0 0.67 0 0.34 0 0 Z " fill="#EEBA74" transform="translate(326,141)"/>
<path d="M0 0 C7.17130684 3.68304154 13.56764761 8.1546953 20 13 C17.50907189 14.24546405 16.58919267 13.7767578 14 13 C14 12.34 14 11.68 14 11 C13.0409375 10.8453125 13.0409375 10.8453125 12.0625 10.6875 C11.0415625 10.3471875 11.0415625 10.3471875 10 10 C9.67 9.01 9.34 8.02 9 7 C8.01 7 7.02 7 6 7 C6 6.34 6 5.68 6 5 C4.02 4.34 2.04 3.68 0 3 C0 2.01 0 1.02 0 0 Z " fill="#EEC078" transform="translate(330,105)"/>
<path d="M0 0 C4.3573226 1.47130373 7.71934134 3.83080615 11.3125 6.625 C11.86228516 7.04523438 12.41207031 7.46546875 12.97851562 7.8984375 C14.32292168 8.92720039 15.66201413 9.9629009 17 11 C16.01 11.495 16.01 11.495 15 12 C12.64018187 11.06421005 10.30368736 10.06652192 8 9 C8 8.34 8 7.68 8 7 C7.4225 6.9175 6.845 6.835 6.25 6.75 C3.3460664 5.78202213 1.96259396 4.31305716 0 2 C0 1.34 0 0.68 0 0 Z " fill="#EFC077" transform="translate(285,74)"/>
<path d="M0 0 C-1.13535526 2.45993639 -2.39389779 4.57178711 -3.9375 6.8125 C-6.10049889 10.15531647 -7.52600024 13.31500061 -9 17 C-9.33 17 -9.66 17 -10 17 C-10 14.03 -10 11.06 -10 8 C-9.34 8 -8.68 8 -8 8 C-7.67 7.01 -7.34 6.02 -7 5 C-2.46511628 0 -2.46511628 0 0 0 Z " fill="#289050" transform="translate(352,309)"/>
<path d="M0 0 C-6.23775666 2.91703025 -12.02616871 5.22648158 -19 4 C-19.99 3.34 -20.98 2.68 -22 2 C-21.071875 1.87625 -20.14375 1.7525 -19.1875 1.625 C-14.93858488 1.03535464 -10.75069448 0.17199631 -6.55078125 -0.6953125 C-4.01599279 -0.99808968 -2.40048027 -0.79828618 0 0 Z " fill="#32417A" transform="translate(178,279)"/>
<path d="M0 0 C0 0.66 0 1.32 0 2 C-3.87030057 3.72928323 -7.75451011 5.33097986 -11.75 6.75 C-12.85601562 7.14445313 -12.85601562 7.14445313 -13.984375 7.546875 C-16 8 -16 8 -19 7 C-15.38136201 4.66561061 -11.90495361 3.13937005 -7.8125 1.8125 C-6.76707031 1.46832031 -5.72164062 1.12414062 -4.64453125 0.76953125 C-2 0 -2 0 0 0 Z " fill="#6C7798" transform="translate(169,247)"/>
<path d="M0 0 C4.07582205 2.0929897 6.02232951 3.86068967 8 8 C8.29296875 11.33203125 8.29296875 11.33203125 8.1875 14.8125 C8.16042969 15.97394531 8.13335937 17.13539063 8.10546875 18.33203125 C8.07066406 19.21246094 8.03585937 20.09289062 8 21 C7.67 21 7.34 21 7 21 C7 17.37 7 13.74 7 10 C6.34 10 5.68 10 5 10 C4.34 9.34 3.68 8.68 3 8 C2.67 8 2.34 8 2 8 C1.34 5.36 0.68 2.72 0 0 Z " fill="#67B06C" transform="translate(372,309)"/>
<path d="M0 0 C0.33 0 0.66 0 1 0 C1.14510162 3.27036728 1.23399373 6.53991007 1.3125 9.8125 C1.35439453 10.74126953 1.39628906 11.67003906 1.43945312 12.62695312 C1.48551502 15.17878189 1.48722926 17.49350816 1 20 C-1.51953125 22.13671875 -1.51953125 22.13671875 -4 23 C-3.5020163 19.26512223 -3.12508244 17.18762365 -1 14 C-0.70547416 11.61322924 -0.5071783 9.21373906 -0.375 6.8125 C-0.30023438 5.54019531 -0.22546875 4.26789063 -0.1484375 2.95703125 C-0.09945313 1.98121094 -0.05046875 1.00539063 0 0 Z " fill="#69AE54" transform="translate(318,352)"/>
<path d="M0 0 C0.66 0 1.32 0 2 0 C3.03028044 2.45475514 4.04945504 4.91314351 5.0625 7.375 C5.50432617 8.42300781 5.50432617 8.42300781 5.95507812 9.4921875 C6.69591098 11.30504908 7.35396964 13.15123143 8 15 C7.67 15.66 7.34 16.32 7 17 C6.67 15.68 6.34 14.36 6 13 C5.34 13 4.68 13 4 13 C-0.64317181 5.21145374 -0.64317181 5.21145374 -1 2 C-0.67 1.34 -0.34 0.68 0 0 Z " fill="#54A56E" transform="translate(306,303)"/>
<path d="M0 0 C0.66 1.32 1.32 2.64 2 4 C1.071875 4.86625 1.071875 4.86625 0.125 5.75 C-1.81347053 7.80249821 -2.90014249 9.43366582 -4 12 C-4.66 12 -5.32 12 -6 12 C-6.33 12.66 -6.66 13.32 -7 14 C-6.25 7.375 -6.25 7.375 -4 4 C-3.01 4 -2.02 4 -1 4 C-0.67 2.68 -0.34 1.36 0 0 Z " fill="#3C4676" transform="translate(250,290)"/>
<path d="M0 0 C3.31907356 1.45770122 5.65073389 3.29506264 8.25 5.8125 C8.95640625 6.47894531 9.6628125 7.14539063 10.390625 7.83203125 C12.32336245 10.43559748 12.33183276 11.83099716 12 15 C9.27573689 12.64722731 8.1858237 10.37503669 7 7 C6.34 7 5.68 7 5 7 C5 6.34 5 5.68 5 5 C3.68 4.67 2.36 4.34 1 4 C0.67 2.68 0.34 1.36 0 0 Z " fill="#16394C" transform="translate(282,274)"/>
<path d="M0 0 C3.89234679 5.83852018 4.2864115 11.65200895 4.125 18.4375 C4.11597656 19.16904297 4.10695313 19.90058594 4.09765625 20.65429688 C4.07436153 22.43634298 4.0385019 24.21821759 4 26 C1.76448241 22.64672361 1.82716472 22.09256343 2.375 18.3125 C2.48585938 17.50425781 2.59671875 16.69601562 2.7109375 15.86328125 C2.80632812 15.24839844 2.90171875 14.63351562 3 14 C2.34 14 1.68 14 1 14 C0.67 9.38 0.34 4.76 0 0 Z " fill="#63AE70" transform="translate(314,321)"/>
<path d="M0 0 C0.66 0.33 1.32 0.66 2 1 C-0.69708191 3.86054142 -3.44373499 6.47543296 -6.5625 8.875 C-7.12066406 9.30554688 -7.67882812 9.73609375 -8.25390625 10.1796875 C-10.52911849 11.24857916 -11.68271143 10.82144584 -14 10 C-13.34 9.34 -12.68 8.68 -12 8 C-11.01 8 -10.02 8 -9 8 C-9 7.34 -9 6.68 -9 6 C-7.03125 4.4921875 -7.03125 4.4921875 -4.5 2.875 C-3.24703125 2.06675781 -3.24703125 2.06675781 -1.96875 1.2421875 C-0.99421875 0.62730469 -0.99421875 0.62730469 0 0 Z " fill="#EEB883" transform="translate(198,118)"/>
<path d="M0 0 C-2.8942113 2.30190759 -5.80243385 4.00834841 -9.125 5.625 C-9.99382812 6.05039062 -10.86265625 6.47578125 -11.7578125 6.9140625 C-12.49773437 7.27242188 -13.23765625 7.63078125 -14 8 C-14.99 8.495 -14.99 8.495 -16 9 C-15.67 7.35 -15.34 5.7 -15 4 C-13.865625 3.71125 -12.73125 3.4225 -11.5625 3.125 C-10.386875 2.75375 -9.21125 2.3825 -8 2 C-7.67 1.34 -7.34 0.68 -7 0 C-4.0262656 -1.09036928 -3.11592499 -1.03864166 0 0 Z " fill="#69AE80" transform="translate(312,280)"/>
<path d="M0 0 C3.93673644 1.31224548 6.22719294 2.91910327 9 6 C8.67 6.66 8.34 7.32 8 8 C7.071875 7.319375 6.14375 6.63875 5.1875 5.9375 C4.135625 5.298125 3.08375 4.65875 2 4 C-0.99332739 4.9977758 -1.94766315 5.7522025 -4 8 C-4.33 6.35 -4.66 4.7 -5 3 C-3.68 3 -2.36 3 -1 3 C-0.67 2.01 -0.34 1.02 0 0 Z " fill="#1C2F53" transform="translate(273,266)"/>
<path d="M0 0 C0.33 0 0.66 0 1 0 C1.33 2.97 1.66 5.94 2 9 C2.33 9 2.66 9 3 9 C3 12.3 3 15.6 3 19 C2.01 19 1.02 19 0 19 C0 12.73 0 6.46 0 0 Z " fill="#F2F2F2" transform="translate(446,222)"/>
<path d="M0 0 C-0.9075 0.495 -1.815 0.99 -2.75 1.5 C-6.24699031 3.78459037 -7.54272614 6.51547977 -9.140625 10.29296875 C-10 12 -10 12 -12 13 C-12.7304505 8.3251168 -10.82584817 5.51651614 -8.484375 1.671875 C-5.78768004 -1.36545511 -3.72203897 -1.24067966 0 0 Z " fill="#EA7135" transform="translate(158,151)"/>
<path d="M0 0 C1.32 0.33 2.64 0.66 4 1 C4 1.66 4 2.32 4 3 C5.98 3 7.96 3 10 3 C10 3.99 10 4.98 10 6 C10.66 6 11.32 6 12 6 C12 6.66 12 7.32 12 8 C12.66 8.33 13.32 8.66 14 9 C13.01 9.33 12.02 9.66 11 10 C9.47500384 8.76702438 7.95357369 7.52693916 6.49609375 6.21484375 C4.73697436 4.78642043 3.24630874 4.25918947 1 4 C0.67 2.68 0.34 1.36 0 0 Z " fill="#ECAA3C" transform="translate(359,128)"/>
<path d="M0 0 C0.66 0.33 1.32 0.66 2 1 C0.25172382 4.57601945 -0.76456927 6.47135958 -4.4921875 8.06640625 C-6.98311972 8.7967504 -9.46386504 9.44824545 -12 10 C-8.29909479 6.0747975 -4.45040344 3.05419844 0 0 Z " fill="#EFC280" transform="translate(254,79)"/>
<path d="M0 0 C1.98 0.495 1.98 0.495 4 1 C3.01 2.485 3.01 2.485 2 4 C1.34 4 0.68 4 0 4 C0 11.92 0 19.84 0 28 C-0.33 28 -0.66 28 -1 28 C-1.02898097 23.89584811 -1.0467922 19.79172247 -1.0625 15.6875 C-1.07087891 14.52025391 -1.07925781 13.35300781 -1.08789062 12.15039062 C-1.09111328 11.03212891 -1.09433594 9.91386719 -1.09765625 8.76171875 C-1.10289307 7.73006592 -1.10812988 6.69841309 -1.11352539 5.63549805 C-1 3 -1 3 0 0 Z " fill="#E39864" transform="translate(206,148)"/>
<path d="M0 0 C2.0625 0.4375 2.0625 0.4375 4 1 C0.41290287 4.58709713 -4.39135831 5.12450641 -9.3125 5.25 C-13 5 -13 5 -15 3 C-14.00097656 2.86722656 -13.00195312 2.73445313 -11.97265625 2.59765625 C-10.68230469 2.42105469 -9.39195312 2.24445313 -8.0625 2.0625 C-6.77472656 1.88847656 -5.48695313 1.71445312 -4.16015625 1.53515625 C-1.14533687 1.33837577 -1.14533687 1.33837577 0 0 Z " fill="#A5C792" transform="translate(369,342)"/>
<path d="M0 0 C0.33 0 0.66 0 1 0 C1.33 7.26 1.66 14.52 2 22 C2.66 22 3.32 22 4 22 C4 22.66 4 23.32 4 24 C2.02 24.99 2.02 24.99 0 26 C0 17.42 0 8.84 0 0 Z " fill="#E46436" transform="translate(175,206)"/>
<path d="M0 0 C0.33 0 0.66 0 1 0 C1 5.28 1 10.56 1 16 C-1.98584445 11.52123332 -2.28490959 8.31831234 -2 3 C-1.34 2.01 -0.68 1.02 0 0 Z " fill="#66719A" transform="translate(169,319)"/>
<path d="M0 0 C0.33 0 0.66 0 1 0 C1 5.61 1 11.22 1 17 C1.66 17 2.32 17 3 17 C2.67 17.99 2.34 18.98 2 20 C-1.26786974 16.73213026 -1.59442409 12.50058425 -2 8 C-1.62319541 5.13260894 -0.9205951 2.7617853 0 0 Z " fill="#74B787" transform="translate(341,317)"/>
<path d="M0 0 C0.33 0 0.66 0 1 0 C1.25060425 1.89311883 1.47460633 3.78977039 1.6875 5.6875 C1.81511719 6.74324219 1.94273438 7.79898438 2.07421875 8.88671875 C1.98856356 12.47972869 1.13719363 14.15568551 -1 17 C-1.33 17 -1.66 17 -2 17 C-2.33 14.03 -2.66 11.06 -3 8 C-2.34 7.67 -1.68 7.34 -1 7 C-0.59270772 4.67843403 -0.25561323 2.3431213 0 0 Z " fill="#EEECEC" transform="translate(103,246)"/>
<path d="M0 0 C0.66 0 1.32 0 2 0 C4.25433614 5.56069582 4.59961828 11.0785651 5 17 C4.01 16.67 3.02 16.34 2 16 C1.34 10.72 0.68 5.44 0 0 Z " fill="#71B285" transform="translate(283,334)"/>
<path d="M0 0 C1.32 0.66 2.64 1.32 4 2 C4 5.96 4 9.92 4 14 C3.34 14 2.68 14 2 14 C2 11.03 2 8.06 2 5 C1.01 4.67 0.02 4.34 -1 4 C-0.67 2.68 -0.34 1.36 0 0 Z " fill="#232A61" transform="translate(203,316)"/>
<path d="M0 0 C0.90105469 0.11085938 1.80210937 0.22171875 2.73046875 0.3359375 C3.76107422 0.47902344 3.76107422 0.47902344 4.8125 0.625 C4.8125 1.285 4.8125 1.945 4.8125 2.625 C6.1325 2.625 7.4525 2.625 8.8125 2.625 C9.1425 3.615 9.4725 4.605 9.8125 5.625 C8.8225 5.625 7.8325 5.625 6.8125 5.625 C6.8125 4.965 6.8125 4.305 6.8125 3.625 C5.43964844 3.53412109 5.43964844 3.53412109 4.0390625 3.44140625 C2.85054688 3.35761719 1.66203125 3.27382812 0.4375 3.1875 C-0.74585938 3.10628906 -1.92921875 3.02507812 -3.1484375 2.94140625 C-6.1875 2.625 -6.1875 2.625 -8.1875 1.625 C-4.73535147 -0.67643236 -3.95270676 -0.51333854 0 0 Z " fill="#ECAC46" transform="translate(276.1875,71.375)"/>
<path d="M0 0 C-0.33 1.65 -0.66 3.3 -1 5 C-1.639375 5.103125 -2.27875 5.20625 -2.9375 5.3125 C-3.618125 5.539375 -4.29875 5.76625 -5 6 C-5.33 6.99 -5.66 7.98 -6 9 C-6.99 8.67 -7.98 8.34 -9 8 C-5.34782609 0 -5.34782609 0 0 0 Z " fill="#218B4D" transform="translate(302,296)"/>
<path d="M0 0 C0.33 0 0.66 0 1 0 C1.66 3.63 2.32 7.26 3 11 C1.35 11.33 -0.3 11.66 -2 12 C-2.33 9.69 -2.66 7.38 -3 5 C-2.34 4.67 -1.68 4.34 -1 4 C-0.34786708 1.97536745 -0.34786708 1.97536745 0 0 Z " fill="#EFECEE" transform="translate(107,269)"/>
<path d="M0 0 C0.66 0.33 1.32 0.66 2 1 C2.04241723 3.33294775 2.04092937 5.66702567 2 8 C1 9 1 9 -1.28515625 9.09765625 C-2.65994141 9.08025391 -2.65994141 9.08025391 -4.0625 9.0625 C-4.98160156 9.05347656 -5.90070313 9.04445312 -6.84765625 9.03515625 C-7.55792969 9.02355469 -8.26820313 9.01195312 -9 9 C-9 8.34 -9 7.68 -9 7 C-6.36 7 -3.72 7 -1 7 C-0.67 4.69 -0.34 2.38 0 0 Z " fill="#E56136" transform="translate(201,224)"/>
<path d="M0 0 C3 2 3 2 3.75 4.75 C4.00396355 8.05152616 3.6914918 10.77303829 3 14 C2.67 12.68 2.34 11.36 2 10 C1.34 10 0.68 10 0 10 C-1.231394 6.30581799 -0.64432764 3.7943739 0 0 Z " fill="#EDECEC" transform="translate(101,193)"/>
<path d="M0 0 C0 0.66 0 1.32 0 2 C-0.66 2 -1.32 2 -2 2 C-2.33 2.99 -2.66 3.98 -3 5 C-3.66 5 -4.32 5 -5 5 C-5 5.66 -5 6.32 -5 7 C-7.64 7.66 -10.28 8.32 -13 9 C-12.34 8.01 -11.68 7.02 -11 6 C-10.01 6 -9.02 6 -8 6 C-8 5.34 -8 4.68 -8 4 C-2.58823529 0 -2.58823529 0 0 0 Z " fill="#EEC17B" transform="translate(242,89)"/>
<path d="M0 0 C0 0.99 0 1.98 0 3 C-1.42578125 4.421875 -1.42578125 4.421875 -3.3125 5.75 C-3.92738281 6.19859375 -4.54226563 6.6471875 -5.17578125 7.109375 C-7 8 -7 8 -10 7 C-6.87378374 3.60582235 -4.43458973 1.3937282 0 0 Z " fill="#ECEAEB" transform="translate(377,371)"/>
<path d="M0 0 C1.09744199 3.44085194 0.99015017 6.35538681 0.6875 9.9375 C0.60886719 10.95714844 0.53023437 11.97679687 0.44921875 13.02734375 C0.00628697 15.95839664 -0.78507545 18.30733048 -2 21 C-2.33 21 -2.66 21 -3 21 C-3.15639125 15.93683317 -2.62766071 11.49601562 -1.5 6.5625 C-1.2215625 5.32628906 -0.943125 4.09007812 -0.65625 2.81640625 C-0.4396875 1.88699219 -0.223125 0.95757812 0 0 Z " fill="#7985A7" transform="translate(232,326)"/>
<path d="M0 0 C0.66 0.33 1.32 0.66 2 1 C1.875 2.8125 1.875 2.8125 1 5 C-1.9375 6.8125 -1.9375 6.8125 -5 8 C-5.66 7.67 -6.32 7.34 -7 7 C-3.375 1.125 -3.375 1.125 0 0 Z " fill="#4F557F" transform="translate(176,310)"/>
<path d="M0 0 C0.33 0 0.66 0 1 0 C1.1953125 6.0546875 1.1953125 6.0546875 1 8 C0.34 8.66 -0.32 9.32 -1 10 C-1.6425235 12.06874034 -1.6425235 12.06874034 -2 14 C-3.65 14.33 -5.3 14.66 -7 15 C-6.66226562 14.50371094 -6.32453125 14.00742187 -5.9765625 13.49609375 C-3.05398512 9.04465363 -1.18978233 5.19177746 0 0 Z " fill="#5DA457" transform="translate(402,264)"/>
<path d="M0 0 C3 1 3 1 4 3 C4.598125 3.0825 5.19625 3.165 5.8125 3.25 C9.26485556 4.43366476 10.27198066 6.91425118 12 10 C12 10.99 12 11.98 12 13 C10.8274869 12.04882866 9.66212985 11.08882991 8.5 10.125 C7.8503125 9.59132813 7.200625 9.05765625 6.53125 8.5078125 C6.0259375 8.01023437 5.520625 7.51265625 5 7 C5 6.34 5 5.68 5 5 C4.01 4.67 3.02 4.34 2 4 C0.8125 1.9375 0.8125 1.9375 0 0 Z " fill="#25755A" transform="translate(277,267)"/>
<path d="M0 0 C4.02784753 2.29034467 8.03712501 4.59825758 12 7 C7.79238221 8.40253926 5.88264416 6.90602531 2 5 C1.34 4.34 0.68 3.68 0 3 C0 2.01 0 1.02 0 0 Z " fill="#EFC689" transform="translate(385,142)"/>
<path d="M0 0 C4.95 0 9.9 0 15 0 C12.669626 2.330374 11.81289219 2.38990587 8.625 2.75 C7.46871094 2.89695312 7.46871094 2.89695312 6.2890625 3.046875 C3.68385332 2.99352601 2.21946143 2.31748852 0 1 C0 0.67 0 0.34 0 0 Z " fill="#8695B8" transform="translate(237,379)"/>
<path d="M0 0 C0.66 0.33 1.32 0.66 2 1 C-3.20506467 5.89888439 -8.22989161 5.34116256 -15.1484375 5.140625 C-16.08945312 5.09421875 -17.03046875 5.0478125 -18 5 C-18 4.67 -18 4.34 -18 4 C-17.20335937 3.96261719 -16.40671875 3.92523438 -15.5859375 3.88671875 C-9.64121143 3.51788538 -5.24570274 3.0369858 0 0 Z " fill="#87B484" transform="translate(398,278)"/>
<path d="M0 0 C-1.41231461 3.35882075 -3.03368978 5.13329047 -5.9375 7.3125 C-6.97197266 8.11107422 -6.97197266 8.11107422 -8.02734375 8.92578125 C-8.67832031 9.28027344 -9.32929688 9.63476562 -10 10 C-10.99 9.67 -11.98 9.34 -13 9 C-7.25 4 -7.25 4 -5 4 C-4.67 3.01 -4.34 2.02 -4 1 C-2 0 -2 0 0 0 Z " fill="#EA9C41" transform="translate(233,97)"/>
<path d="M0 0 C0.66 0.33 1.32 0.66 2 1 C0.625 2.5 0.625 2.5 -1 4 C-1.66 4 -2.32 4 -3 4 C-3.20625 4.639375 -3.4125 5.27875 -3.625 5.9375 C-5 8 -5 8 -8.125 8.75 C-9.548125 8.87375 -9.548125 8.87375 -11 9 C-7.67149253 5.40521193 -4.01028669 2.77635232 0 0 Z " fill="#F0B87B" transform="translate(227,98)"/>
<path d="M0 0 C3.63 0 7.26 0 11 0 C11 0.66 11 1.32 11 2 C11.66 2.33 12.32 2.66 13 3 C9.7 3 6.4 3 3 3 C3 2.34 3 1.68 3 1 C2.01 0.67 1.02 0.34 0 0 Z " fill="#E1DEDF" transform="translate(269,52)"/>
<path d="M0 0 C0.66 0 1.32 0 2 0 C0.6062718 4.43458973 -1.60582235 6.87378374 -5 10 C-5.75 8.25 -5.75 8.25 -6 6 C-4.1875 3.75 -4.1875 3.75 -2 2 C-1.34 2 -0.68 2 0 2 C0 1.34 0 0.68 0 0 Z " fill="#606C96" transform="translate(205,333)"/>
<path d="M0 0 C4.10958767 1.45044271 7.43258745 3.51110752 11 6 C8 7 8 7 4.375 5.8125 C1 4 1 4 0.0625 1.8125 C0.041875 1.214375 0.02125 0.61625 0 0 Z " fill="#EDC26D" transform="translate(319,98)"/>
<path d="M0 0 C2.32590854 3.63423209 2.16265833 6.77088331 2 11 C1.34 11 0.68 11 0 11 C0 9.35 0 7.7 0 6 C-0.66 6 -1.32 6 -2 6 C-2 4.35 -2 2.7 -2 1 C-1.34 0.67 -0.68 0.34 0 0 Z " fill="#2F9254" transform="translate(285,328)"/>
<path d="M0 0 C0.66 0 1.32 0 2 0 C2 1.32 2 2.64 2 4 C1.01 4 0.02 4 -1 4 C-1.33 7.63 -1.66 11.26 -2 15 C-4.21011486 10.57977027 -4.21917784 9.59536264 -3 5 C-1.5625 2.125 -1.5625 2.125 0 0 Z " fill="#65AD86" transform="translate(282,311)"/>
<path d="M0 0 C0.99 0 1.98 0 3 0 C3 0.66 3 1.32 3 2 C3.721875 2.103125 4.44375 2.20625 5.1875 2.3125 C8.24491993 3.05986932 10.38329635 4.28045189 13 6 C12.67 6.66 12.34 7.32 12 8 C10.68 7.67 9.36 7.34 8 7 C8 6.34 8 5.68 8 5 C7.34 5 6.68 5 6 5 C6 4.34 6 3.68 6 3 C4.35 3.33 2.7 3.66 1 4 C0.67 2.68 0.34 1.36 0 0 Z " fill="#F1A42D" transform="translate(280,75)"/>
<path d="M0 0 C0.66 0 1.32 0 2 0 C1.52797514 4.24822374 -0.96655518 6.19989709 -4 9 C-4.99 8.67 -5.98 8.34 -7 8 C-6.01 7.67 -5.02 7.34 -4 7 C-4 6.34 -4 5.68 -4 5 C-3.34 5 -2.68 5 -2 5 C-1.34 3.35 -0.68 1.7 0 0 Z " fill="#6577AA" transform="translate(258,370)"/>
<path d="M0 0 C3.2542015 2.83430453 4.5206753 4.68607774 5 9 C3.68 8.67 2.36 8.34 1 8 C1 7.01 1 6.02 1 5 C-0.43750191 3.31201173 -0.43750191 3.31201173 -2 2 C-1.34 1.34 -0.68 0.68 0 0 Z " fill="#21944A" transform="translate(306,309)"/>
<path d="M0 0 C0 0.66 0 1.32 0 2 C-0.556875 2.20625 -1.11375 2.4125 -1.6875 2.625 C-3.97109326 3.98281221 -4.9991561 5.07942786 -6.625 7.125 C-7.40875 8.07375 -8.1925 9.0225 -9 10 C-9.66 10 -10.32 10 -11 10 C-9.7978674 5.32503988 -7.45867887 3.53616659 -3.65625 0.91796875 C-2 0 -2 0 0 0 Z " fill="#73AE8C" transform="translate(353,307)"/>
<path d="M0 0 C0.66 0.33 1.32 0.66 2 1 C2 4 2 4 -0.5 6.6875 C-1.325 7.450625 -2.15 8.21375 -3 9 C-3.75 6.75 -3.75 6.75 -4 4 C-2.0625 1.6875 -2.0625 1.6875 0 0 Z " fill="#212561" transform="translate(265,273)"/>
<path d="M0 0 C7.06533193 2.04109589 7.06533193 2.04109589 9 5 C8.6875 7.1875 8.6875 7.1875 8 9 C6.5 7.625 6.5 7.625 5 6 C5 5.34 5 4.68 5 4 C2.525 3.01 2.525 3.01 0 2 C0 1.34 0 0.68 0 0 Z " fill="#74AF78" transform="translate(391,250)"/>
<path d="M0 0 C0.66 0.33 1.32 0.66 2 1 C-0.97 3.64 -3.94 6.28 -7 9 C-7.33 8.01 -7.66 7.02 -8 6 C-3.375 1.125 -3.375 1.125 0 0 Z " fill="#EB833C" transform="translate(174,137)"/>
<path d="M0 0 C0.66 0 1.32 0 2 0 C1.75 2.375 1.75 2.375 1 5 C-1.0625 6.3125 -1.0625 6.3125 -3 7 C-3 6.01 -3 5.02 -3 4 C-3.66 3.67 -4.32 3.34 -5 3 C-4.67 2.34 -4.34 1.68 -4 1 C-3.34 1 -2.68 1 -2 1 C-1.67 1.66 -1.34 2.32 -1 3 C-0.67 2.01 -0.34 1.02 0 0 Z " fill="#384964" transform="translate(294,285)"/>
<path d="M0 0 C0.66 0.33 1.32 0.66 2 1 C1.25 2.9375 1.25 2.9375 0 5 C-2.0625 5.625 -2.0625 5.625 -4 6 C-4.33 6.66 -4.66 7.32 -5 8 C-6.32 7.67 -7.64 7.34 -9 7 C-6.03 4.69 -3.06 2.38 0 0 Z " fill="#59797F" transform="translate(277,261)"/>
<path d="M0 0 C1.79158489 -0.02696365 3.58328473 -0.04637917 5.375 -0.0625 C6.37273437 -0.07410156 7.37046875 -0.08570313 8.3984375 -0.09765625 C11 0 11 0 13 1 C13 1.66 13 2.32 13 3 C8.18061476 3.23509196 4.53701494 2.45184478 0 1 C0 0.67 0 0.34 0 0 Z " fill="#6CAE7A" transform="translate(363,244)"/>
<path d="M0 0 C1.98 0 3.96 0 6 0 C7.32 2.31 8.64 4.62 10 7 C6.42032008 5.34784004 3.22017048 3.26875648 0 1 C0 0.67 0 0.34 0 0 Z " fill="#EDBB71" transform="translate(278,108)"/>
<path d="M0 0 C2.97 0.495 2.97 0.495 6 1 C6 1.99 6 2.98 6 4 C7.98 4.66 9.96 5.32 12 6 C11.67 6.66 11.34 7.32 11 8 C9.53686228 7.23832543 8.07963339 6.46529293 6.625 5.6875 C5.81289063 5.25824219 5.00078125 4.82898438 4.1640625 4.38671875 C2 3 2 3 0 0 Z " fill="#EBAB42" transform="translate(324,104)"/>
<path d="M0 0 C-0.33 0.66 -0.66 1.32 -1 2 C-4.0625 2.625 -4.0625 2.625 -7 3 C-7 3.99 -7 4.98 -7 6 C-7.99 6 -8.98 6 -10 6 C-8.20404732 1.26521567 -5.07984355 -1.69328118 0 0 Z " fill="#ED9D3A" transform="translate(272,105)"/>
<path d="M0 0 C1.31534494 3.65857532 0.65468309 6.08026481 -0.4375 9.75 C-0.86869141 11.22726562 -0.86869141 11.22726562 -1.30859375 12.734375 C-1.53675781 13.48203125 -1.76492187 14.2296875 -2 15 C-2.33 15 -2.66 15 -3 15 C-3.36263859 9.1977825 -2.25684543 5.36000789 0 0 Z " fill="#677095" transform="translate(237,311)"/>
<path d="M0 0 C0.90492188 0.02320313 1.80984375 0.04640625 2.7421875 0.0703125 C4.10730469 0.09738281 4.10730469 0.09738281 5.5 0.125 C6.19867188 0.14820313 6.89734375 0.17140625 7.6171875 0.1953125 C7.6171875 0.8553125 7.6171875 1.5153125 7.6171875 2.1953125 C3.53275635 3.72697418 -0.17736907 2.82612902 -4.3828125 2.1953125 C-2.3828125 0.1953125 -2.3828125 0.1953125 0 0 Z " fill="#222556" transform="translate(215.3828125,242.8046875)"/>
<path d="M0 0 C-0.33 0.99 -0.66 1.98 -1 3 C-3.75 3.6875 -3.75 3.6875 -7 4 C-9.375 2.5625 -9.375 2.5625 -11 1 C-7.26562152 0.12132271 -3.83225427 -0.08912219 0 0 Z " fill="#F2F0EF" transform="translate(298,53)"/>
<path d="M0 0 C0.66 0.33 1.32 0.66 2 1 C0.71111971 3.8751945 -0.53266983 6.0071564 -3 8 C-5.1875 8.6875 -5.1875 8.6875 -7 9 C-6.67 8.01 -6.34 7.02 -6 6 C-5.01 6 -4.02 6 -3 6 C-2.67 5.01 -2.34 4.02 -2 3 C-1.34 3 -0.68 3 0 3 C0 2.01 0 1.02 0 0 Z " fill="#96C284" transform="translate(317,371)"/>
<path d="M0 0 C1 2 1 2 0.44140625 3.9453125 C0.15136719 4.66460937 -0.13867188 5.38390625 -0.4375 6.125 C-0.72496094 6.84945313 -1.01242188 7.57390625 -1.30859375 8.3203125 C-1.53675781 8.87460937 -1.76492187 9.42890625 -2 10 C-2.66 10 -3.32 10 -4 10 C-3.5205537 5.78087253 -2.83374881 3.20336822 0 0 Z " fill="#616A92" transform="translate(149,255)"/>
<path d="M0 0 C0.33 0 0.66 0 1 0 C1.27036084 5.27203646 0.26305335 9.92523206 -1 15 C-1.33 15 -1.66 15 -2 15 C-2 11.04 -2 7.08 -2 3 C-1.34 3 -0.68 3 0 3 C0 2.01 0 1.02 0 0 Z " fill="#EB8636" transform="translate(347,218)"/>
<path d="M0 0 C2.97 0.99 5.94 1.98 9 3 C9 3.66 9 4.32 9 5 C9.66 5 10.32 5 11 5 C11 5.66 11 6.32 11 7 C9.02 6.34 7.04 5.68 5 5 C5 4.34 5 3.68 5 3 C2.525 2.01 2.525 2.01 0 1 C0 0.67 0 0.34 0 0 Z " fill="#ECAA41" transform="translate(293,83)"/>
<path d="M0 0 C0 0.99 0 1.98 0 3 C-2.3125 5.25 -2.3125 5.25 -5 7 C-5.99 6.67 -6.98 6.34 -8 6 C-4.55384615 1.2 -4.55384615 1.2 -1.75 0.1875 C-1.1725 0.125625 -0.595 0.06375 0 0 Z " fill="#EFA441" transform="translate(260,78)"/>
<path d="M0 0 C3.65316671 1.24976756 4.78065836 1.67098753 7 5 C6.34 5 5.68 5 5 5 C4.67 5.66 4.34 6.32 4 7 C1 5 1 5 0.3125 2.375 C0.209375 1.59125 0.10625 0.8075 0 0 Z " fill="#E6E4E4" transform="translate(172,370)"/>
<path d="M0 0 C1.32 0 2.64 0 4 0 C4 0.66 4 1.32 4 2 C3.34 2 2.68 2 2 2 C2 3.32 2 4.64 2 6 C0.68 6 -0.64 6 -2 6 C-1.34 4.02 -0.68 2.04 0 0 Z " fill="#6DB146" transform="translate(371,336)"/>
<path d="M0 0 C3.3 0.33 6.6 0.66 10 1 C10 1.66 10 2.32 10 3 C10.66 3 11.32 3 12 3 C12 3.66 12 4.32 12 5 C7.89100419 3.87204037 3.92438786 2.66489182 0 1 C0 0.67 0 0.34 0 0 Z " fill="#222559" transform="translate(189,308)"/>
<path d="M0 0 C-1.60149886 0.67305018 -3.20631029 1.33822227 -4.8125 2 C-6.15248047 2.556875 -6.15248047 2.556875 -7.51953125 3.125 C-10 4 -10 4 -13 4 C-13 3.34 -13 2.68 -13 2 C-11.5882217 1.46605821 -10.17029756 0.94834896 -8.75 0.4375 C-7.96109375 0.14746094 -7.1721875 -0.14257812 -6.359375 -0.44140625 C-3.80896548 -1.04522837 -2.44677771 -0.8473932 0 0 Z " fill="#6A739E" transform="translate(178,279)"/>
<path d="M0 0 C1.98 0.66 3.96 1.32 6 2 C6 2.66 6 3.32 6 4 C4.35 3.67 2.7 3.34 1 3 C1 5.64 1 8.28 1 11 C0.67 11 0.34 11 0 11 C0 7.37 0 3.74 0 0 Z " fill="#F0B565" transform="translate(374,173)"/>
<path d="M0 0 C0 0.66 0 1.32 0 2 C-0.66 2 -1.32 2 -2 2 C-2 2.99 -2 3.98 -2 5 C-4.31 5.33 -6.62 5.66 -9 6 C-3.2 0 -3.2 0 0 0 Z " fill="#ECAA8A" transform="translate(160,145)"/>
<path d="M0 0 C4.67105792 1.55701931 8.08705685 4.08447373 12 7 C11.01 7.33 10.02 7.66 9 8 C6.73828125 6.85546875 6.73828125 6.85546875 4.3125 5.1875 C3.50425781 4.64480469 2.69601562 4.10210937 1.86328125 3.54296875 C1.24839844 3.03378906 0.63351562 2.52460937 0 2 C0 1.34 0 0.68 0 0 Z " fill="#F0CA7B" transform="translate(350,119)"/>
<path d="M0 0 C4.56454251 0.54339792 7.9728176 1.79463821 12 4 C12 4.33 12 4.66 12 5 C9.69 4.67 7.38 4.34 5 4 C5 3.34 5 2.68 5 2 C4.01 2.33 3.02 2.66 2 3 C2 2.34 2 1.68 2 1 C1.34 0.67 0.68 0.34 0 0 Z " fill="#666788" transform="translate(244,248)"/>
<path d="M0 0 C0 0.66 0 1.32 0 2 C-4.0188515 3.81242323 -7.61110675 5.33501617 -12 6 C-8.40461874 2.91824463 -4.933456 0 0 0 Z " fill="#525A83" transform="translate(169,247)"/>
<path d="M0 0 C0.66 0.33 1.32 0.66 2 1 C1.67 2.32 1.34 3.64 1 5 C-0.32 5 -1.64 5 -3 5 C-3 5.66 -3 6.32 -3 7 C-3.66 7 -4.32 7 -5 7 C-5 5.68 -5 4.36 -5 3 C-4.360625 2.87625 -3.72125 2.7525 -3.0625 2.625 C-2.0415625 2.315625 -2.0415625 2.315625 -1 2 C-0.67 1.34 -0.34 0.68 0 0 Z " fill="#E37E40" transform="translate(283,208)"/>
<path d="M0 0 C0.66 0 1.32 0 2 0 C2 0.66 2 1.32 2 2 C2.66 2 3.32 2 4 2 C3.67 3.98 3.34 5.96 3 8 C2.34 7.67 1.68 7.34 1 7 C0.59270772 4.67843403 0.25561323 2.3431213 0 0 Z " fill="#E46E3D" transform="translate(146,166)"/>
<path d="M0 0 C0.721875 0.474375 1.44375 0.94875 2.1875 1.4375 C4.89475226 2.94152903 6.96194275 3.56599182 10 4 C10 4.66 10 5.32 10 6 C3.52443609 5.38909774 3.52443609 5.38909774 1.0625 3.5625 C0 2 0 2 0 0 Z " fill="#EA9E3A" transform="translate(297,118)"/>
<path d="M0 0 C1.48280196 0.78483659 2.9611498 1.57809334 4.4375 2.375 C5.67306641 3.03628906 5.67306641 3.03628906 6.93359375 3.7109375 C9 5 9 5 10 7 C8.68 7 7.36 7 6 7 C6 6.34 6 5.68 6 5 C4.02 4.34 2.04 3.68 0 3 C0 2.01 0 1.02 0 0 Z " fill="#F0CA8A" transform="translate(330,105)"/>
<path d="M0 0 C3.93673644 1.31224548 6.22719294 2.91910327 9 6 C3.50847458 5.38983051 3.50847458 5.38983051 1.125 3.5625 C0 2 0 2 0 0 Z " fill="#EFCD86" transform="translate(285,74)"/>
<path d="M0 0 C2 3 2 3 2 7 C1.01 7.33 0.02 7.66 -1 8 C-1.625 5.125 -1.625 5.125 -2 2 C-1.34 1.34 -0.68 0.68 0 0 Z " fill="#E2E1E1" transform="translate(104,258)"/>
<path d="M0 0 C-0.5625 1.875 -0.5625 1.875 -2 4 C-5.625 5.25 -5.625 5.25 -9 6 C-3.15384615 0 -3.15384615 0 0 0 Z " fill="#EDB392" transform="translate(169,139)"/>
<path d="M0 0 C-0.5625 1.875 -0.5625 1.875 -2 4 C-5.625 5.25 -5.625 5.25 -9 6 C-3.15384615 0 -3.15384615 0 0 0 Z " fill="#F0B08A" transform="translate(178,133)"/>
<path d="M0 0 C0.99 0.33 1.98 0.66 3 1 C2.34 3.31 1.68 5.62 1 8 C0.34 8 -0.32 8 -1 8 C-0.67 5.36 -0.34 2.72 0 0 Z " fill="#239151" transform="translate(281,315)"/>
<path d="M0 0 C-5.625 4 -5.625 4 -9 4 C-8.25 2.0625 -8.25 2.0625 -7 0 C-4.04680182 -1.23843794 -3.12561472 -1.04187157 0 0 Z " fill="#E97A40" transform="translate(158,151)"/>
<path d="M0 0 C1.11375 0.598125 2.2275 1.19625 3.375 1.8125 C4.00148438 2.14894531 4.62796875 2.48539062 5.2734375 2.83203125 C7 4 7 4 9 7 C4.71193127 6.52354792 2.73352513 5.34097516 0 2 C0 1.34 0 0.68 0 0 Z " fill="#F0CD80" transform="translate(310,91)"/>
<path d="M0 0 C-0.33 0.66 -0.66 1.32 -1 2 C-3.31 2 -5.62 2 -8 2 C-8 1.34 -8 0.68 -8 0 C-4.71023192 -1.09658936 -3.28696233 -0.79953138 0 0 Z " fill="#F0EAEB" transform="translate(238,57)"/>
<path d="M0 0 C-2.76223278 2.76223278 -5.20706617 2.57856291 -9 3 C-9 2.34 -9 1.68 -9 1 C-5.57367167 -0.61798838 -3.61944899 -1.34053666 0 0 Z " fill="#96BF7F" transform="translate(373,343)"/>
<path d="M0 0 C1.32 0.33 2.64 0.66 4 1 C4 1.66 4 2.32 4 3 C4.99 3 5.98 3 7 3 C7.33 4.32 7.66 5.64 8 7 C2.25 3.375 2.25 3.375 0 0 Z " fill="#82B778" transform="translate(344,338)"/>
<path d="M0 0 C0.625 1.875 0.625 1.875 1 4 C0.34 4.66 -0.32 5.32 -1 6 C-1.99 7.485 -1.99 7.485 -3 9 C-3.66 9 -4.32 9 -5 9 C-3.7508258 5.54074837 -2.32472205 2.85306797 0 0 Z " fill="#6F749B" transform="translate(252,285)"/>
<path d="M0 0 C5.75 -0.125 5.75 -0.125 8 1 C8 1.99 8 2.98 8 4 C6.35 3.67 4.7 3.34 3 3 C3 2.34 3 1.68 3 1 C2.01 0.67 1.02 0.34 0 0 Z " fill="#78B173" transform="translate(372,278)"/>
<path d="M0 0 C0.33 0 0.66 0 1 0 C1 2.31 1 4.62 1 7 C0.01 7.33 -0.98 7.66 -2 8 C-2.20086443 4.28400809 -2.1519437 3.22791555 0 0 Z " fill="#E1DBDD" transform="translate(102,246)"/>
<path d="M0 0 C4.29 0 8.58 0 13 0 C13 0.33 13 0.66 13 1 C11.72125 1.12375 10.4425 1.2475 9.125 1.375 C5.65209064 1.69042399 5.65209064 1.69042399 3 4 C2.01 2.68 1.02 1.36 0 0 Z " fill="#1E235C" transform="translate(189,244)"/>
<path d="M0 0 C3.96 0.33 7.92 0.66 12 1 C12 1.33 12 1.66 12 2 C7.28400182 2.92470553 4.32734391 3.22923777 0 1 C0 0.67 0 0.34 0 0 Z " fill="#6E6D96" transform="translate(223,243)"/>
<path d="M0 0 C1.32 0.33 2.64 0.66 4 1 C4.33 2.32 4.66 3.64 5 5 C3.68 4.67 2.36 4.34 1 4 C0.67 2.68 0.34 1.36 0 0 Z " fill="#E9A757" transform="translate(337,146)"/>
<path d="M0 0 C2.64 0.33 5.28 0.66 8 1 C8 1.66 8 2.32 8 3 C6.25 3.75 6.25 3.75 4 4 C1.75 2.0625 1.75 2.0625 0 0 Z " fill="#F5F4F2" transform="translate(251,53)"/>
<path d="M0 0 C0 0.66 0 1.32 0 2 C-0.99 2 -1.98 2 -3 2 C-3 2.66 -3 3.32 -3 4 C-4.98 4 -6.96 4 -9 4 C-8.01 3.67 -7.02 3.34 -6 3 C-6 2.34 -6 1.68 -6 1 C-3.92446352 0.4465236 -2.15634036 0 0 0 Z " fill="#67AA4E" transform="translate(314,375)"/>
<path d="M0 0 C2.0625 0.4375 2.0625 0.4375 4 1 C4.33 2.32 4.66 3.64 5 5 C3.35 4.67 1.7 4.34 0 4 C-0.33 3.01 -0.66 2.02 -1 1 C-0.67 0.67 -0.34 0.34 0 0 Z " fill="#445E94" transform="translate(171,334)"/>
<path d="M0 0 C-2.85306797 2.32472205 -5.54074837 3.7508258 -9 5 C-8.6875 3.0625 -8.6875 3.0625 -8 1 C-5.07175348 0.02391783 -3.04386724 -0.08226668 0 0 Z " fill="#21275F" transform="translate(186,308)"/>
<path d="M0 0 C0 0.99 0 1.98 0 3 C0.33 3.99 0.66 4.98 1 6 C-2 6 -2 6 -5 5 C-3.35 3.35 -1.7 1.7 0 0 Z " fill="#555886" transform="translate(262,274)"/>
<path d="M0 0 C-3.20380017 2.13586678 -4.01939967 2.23132175 -7.6875 2.125 C-8.89986328 2.09792969 -8.89986328 2.09792969 -10.13671875 2.0703125 C-11.05904297 2.03550781 -11.05904297 2.03550781 -12 2 C-12 1.67 -12 1.34 -12 1 C-3.96428571 -1.27678571 -3.96428571 -1.27678571 0 0 Z " fill="#666D8F" transform="translate(181,245)"/>
<path d="M0 0 C2.97 0.495 2.97 0.495 6 1 C6.33 2.32 6.66 3.64 7 5 C3.34683329 3.75023244 2.21934164 3.32901247 0 0 Z " fill="#EFBD72" transform="translate(319,136)"/>
<path d="M0 0 C0 0.66 0 1.32 0 2 C-1.98 2.99 -3.96 3.98 -6 5 C-6 3.68 -6 2.36 -6 1 C-3 0 -3 0 0 0 Z " fill="#EFC285" transform="translate(271,107)"/>
</svg>
